<?xml version="1.0" standalone="no"?>
<!DOCTYPE svg PUBLIC "-//W3C//DTD SVG 20010904//EN"
 "http://www.w3.org/TR/2001/REC-SVG-20010904/DTD/svg10.dtd">
<svg version="1.0" xmlns="http://www.w3.org/2000/svg"
 width="2000.000000pt" height="1824.000000pt" viewBox="0 0 2000.000000 1824.000000"
 preserveAspectRatio="xMidYMid meet">

<g transform="translate(0.000000,1824.000000) scale(0.100000,-0.100000)"
fill="#000000" stroke="none">
<path d="M8445 15960 c-3 -5 -11 -7 -18 -4 -7 2 -21 -3 -32 -12 -11 -8 -14
-12 -6 -8 9 5 12 3 7 -5 -4 -6 -11 -9 -16 -6 -12 7 -41 -6 -34 -16 3 -5 -2 -6
-10 -3 -8 3 -19 -3 -26 -15 -8 -16 -8 -21 2 -21 9 0 10 -2 1 -8 -8 -5 -11 -71
-12 -219 0 -117 1 -213 4 -213 9 0 104 59 130 82 47 39 55 74 55 228 0 110 -3
140 -12 134 -8 -5 -7 0 2 11 12 15 13 19 1 23 -11 4 -11 6 0 14 11 7 11 11 1
15 -6 2 -10 8 -7 13 3 4 -2 10 -10 14 -8 3 -17 1 -20 -4z m-18 -62 c5 -67 1
-322 -4 -331 -4 -6 0 -7 8 -3 8 4 5 1 -5 -6 -11 -7 -30 -24 -44 -38 -13 -13
-23 -20 -22 -15 1 6 2 15 1 20 -6 30 -1 338 5 347 4 7 3 8 -4 4 -8 -5 -10 -2
-6 9 5 13 9 13 22 3 13 -11 15 -10 9 6 -6 15 -5 17 7 7 11 -9 15 -8 20 4 8 21
11 19 13 -7z m-90 -50 c-3 -8 -6 -5 -6 6 -1 11 2 17 5 13 3 -3 4 -12 1 -19z
m122 -262 c9 -11 9 -16 -1 -22 -7 -4 -10 -4 -6 1 4 4 3 14 -3 22 -6 7 -9 13
-6 13 2 0 10 -6 16 -14z m-116 -23 c-7 -2 -13 -9 -13 -14 0 -6 6 -7 13 -3 9 5
9 4 0 -6 -7 -8 -16 -11 -19 -7 -10 10 4 37 18 36 10 0 10 -2 1 -6z m67 -47 c0
-2 -8 -10 -17 -17 -16 -13 -17 -12 -4 4 13 16 21 21 21 13z m-49 -33 c13 -16
12 -17 -3 -4 -17 13 -22 21 -14 21 2 0 10 -8 17 -17z"/>
<path d="M8228 15852 c-19 -12 -30 -28 -34 -52 -3 -19 -12 -57 -20 -83 -7 -27
-12 -52 -11 -55 1 -4 -8 -17 -20 -29 -13 -13 -23 -19 -23 -14 0 6 5 13 10 16
6 3 10 14 10 23 0 15 -2 15 -11 2 -8 -12 -9 -11 -5 6 7 23 -15 96 -30 101 -5
1 -19 -5 -31 -15 l-22 -17 31 -93 32 -92 -17 -71 c-17 -68 -14 -107 4 -78 5 8
9 10 9 4 0 -5 -5 -17 -10 -25 -6 -10 -10 -11 -10 -2 0 6 -5 12 -11 12 -6 0 -9
-9 -6 -20 3 -10 1 -20 -3 -22 -5 -2 -10 -14 -12 -28 -2 -14 -7 -31 -12 -38 -7
-11 -4 -12 11 -4 33 18 43 37 62 116 17 69 17 78 3 98 -15 21 -15 22 1 9 14
-11 18 -11 23 3 6 15 8 15 19 -1 7 -10 11 -21 9 -24 -7 -13 18 -69 31 -69 8 0
17 -4 20 -10 3 -6 -1 -7 -9 -4 -9 3 -16 2 -16 -3 0 -19 12 -21 41 -6 28 14 39
33 19 33 -5 0 -7 7 -4 15 4 8 1 15 -7 15 -7 0 -10 3 -6 6 3 3 -6 37 -20 75
-22 61 -24 74 -14 113 6 25 8 52 4 62 -4 11 -3 15 4 11 6 -4 13 4 15 18 4 16
1 22 -6 18 -6 -4 -5 0 2 9 9 12 45 111 39 107 -1 0 -14 -8 -29 -17z m-130
-117 c-3 -3 -9 2 -12 12 -6 14 -5 15 5 6 7 -7 10 -15 7 -18z m79 -127 c-3 -8
-6 -5 -6 6 -1 11 2 17 5 13 3 -3 4 -12 1 -19z m-53 -84 c3 -8 2 -12 -4 -9 -6
3 -10 10 -10 16 0 14 7 11 14 -7z m57 -57 c-10 -9 -11 -8 -5 6 3 10 9 15 12
12 3 -3 0 -11 -7 -18z m47 -48 l14 -24 -19 24 c-15 17 -22 20 -25 10 -3 -10
-6 -9 -10 3 -10 26 24 15 40 -13z"/>
<path d="M10794 15625 c-4 -8 -10 -12 -16 -9 -6 4 -9 -18 -7 -56 2 -59 1 -64
-27 -84 -25 -18 -27 -18 -14 -2 15 19 14 19 -17 2 -24 -12 -33 -23 -33 -41 0
-23 2 -24 25 -13 14 6 25 15 25 20 0 5 5 6 10 3 6 -3 10 -1 10 5 0 6 5 8 10 5
6 -3 10 -26 10 -50 0 -42 1 -44 23 -36 18 7 22 17 25 62 2 33 8 57 17 61 7 5
12 17 10 28 -2 11 0 22 5 25 5 3 7 -4 5 -15 -5 -24 3 -25 33 -4 12 8 22 26 22
39 l0 24 -47 -24 c-26 -14 -52 -23 -57 -21 -7 3 -6 5 2 5 7 1 12 14 12 32 0
21 -4 28 -12 23 -10 -6 -10 -4 0 7 6 7 12 17 12 21 0 14 -20 9 -26 -7z m104
-77 c-2 -6 -10 -13 -16 -14 -7 -1 -8 0 -2 3 5 2 8 9 4 14 -3 5 0 9 6 9 7 0 10
-5 8 -12z m-108 -63 c-6 -8 -8 -20 -4 -27 5 -10 4 -10 -6 -1 -11 10 -11 15 0
28 7 8 15 15 17 15 3 0 0 -7 -7 -15z"/>
<path d="M10301 15481 c-8 -5 -10 -14 -5 -22 6 -11 3 -10 -10 1 -16 13 -20 12
-36 -7 -10 -12 -20 -19 -23 -16 -4 3 -11 -5 -17 -18 -6 -13 -19 -37 -29 -54
-18 -27 -20 -50 -20 -228 0 -167 2 -198 14 -193 8 3 17 0 21 -6 4 -6 3 -8 -4
-4 -16 10 -22 -7 -6 -22 11 -10 15 -9 23 7 6 10 7 21 4 25 -3 3 -1 6 5 6 7 0
12 -5 12 -11 0 -5 4 -8 9 -4 5 3 12 1 16 -4 3 -6 -3 -8 -14 -6 -11 2 -22 -3
-25 -11 -7 -17 6 -18 22 -2 7 7 12 8 12 4 0 -5 6 -3 14 4 8 6 13 17 10 25 -3
7 -1 16 5 20 7 3 8 0 5 -9 -9 -24 10 -19 35 9 12 14 19 31 15 37 -4 7 -3 8 4
4 7 -4 13 -2 13 3 3 20 4 26 11 36 3 6 6 38 5 72 -1 61 -1 62 -20 45 -10 -9
-22 -15 -26 -12 -3 3 -9 -22 -12 -55 -11 -97 -12 -100 -49 -100 l-32 0 1 184
c0 161 3 186 18 203 10 11 17 22 15 25 -2 3 0 8 4 11 4 4 4 1 -1 -7 -6 -10 -2
-12 13 -7 17 6 21 1 27 -24 5 -24 11 -30 23 -26 15 5 15 4 2 -7 -8 -6 -16 -19
-18 -27 -2 -9 4 -7 18 8 12 12 25 20 30 17 4 -3 8 19 8 49 0 40 -6 61 -20 76
-21 22 -27 24 -47 11z m38 -95 c0 -6 -3 -6 -6 2 -2 6 -10 9 -16 5 -7 -3 -9 -3
-5 2 4 4 2 15 -4 24 -8 10 -4 9 10 -3 12 -11 22 -24 21 -30z m-99 -3 c0 -1 -8
-7 -18 -12 -13 -7 -19 -6 -19 2 0 7 9 13 19 13 10 0 18 -1 18 -3z m94 -293
c-6 -6 -10 -3 -10 10 0 13 4 16 10 10 7 -7 7 -13 0 -20z"/>
<path d="M10522 15472 c-24 -18 -24 -22 -21 -254 0 -10 6 -15 15 -11 7 3 11
10 7 16 -4 6 0 8 10 4 20 -8 22 4 5 22 -11 11 -10 12 0 6 12 -6 12 -3 2 15 -9
18 -9 21 0 15 10 -6 11 -1 6 18 -6 24 -2 29 36 48 53 26 48 22 54 53 2 14 0
26 -6 26 -5 0 -10 -5 -10 -11 0 -5 -4 -7 -10 -4 -5 3 -10 1 -10 -5 0 -6 -4 -9
-9 -6 -5 3 -15 -2 -22 -11 -12 -14 -15 -9 -19 40 l-5 56 -23 -17z m6 -22 c-7
-11 -15 -15 -17 -9 -2 6 3 15 10 20 20 12 21 11 7 -11z"/>
<path d="M10462 15333 c-6 -2 -9 -10 -5 -16 4 -7 0 -8 -12 -3 -16 6 -16 4 -4
-10 13 -16 12 -16 -9 -5 -21 11 -22 10 -20 -18 l2 -30 32 24 c17 13 34 22 37
19 2 -3 5 7 5 21 0 25 -3 27 -26 18z"/>
<path d="M19790 14210 c-8 -5 -10 -10 -5 -10 6 0 17 5 25 10 8 5 11 10 5 10
-5 0 -17 -5 -25 -10z"/>
<path d="M19659 14133 c-13 -16 -12 -17 4 -4 9 7 17 15 17 17 0 8 -8 3 -21
-13z"/>
<path d="M19660 14110 c-9 -6 -10 -10 -3 -10 6 0 15 5 18 10 8 12 4 12 -15 0z"/>
<path d="M19546 14071 c-28 -17 -44 -31 -37 -35 6 -4 11 -2 11 3 0 6 6 11 14
11 8 0 22 7 30 16 9 8 20 13 24 10 5 -3 9 1 9 9 0 8 -1 15 -1 15 -1 0 -23 -13
-50 -29z"/>
<path d="M19610 14090 c0 -5 5 -10 10 -10 6 0 10 5 10 10 0 6 -4 10 -10 10 -5
0 -10 -4 -10 -10z"/>
<path d="M12665 14062 c-16 -9 -33 -21 -37 -27 -4 -5 -8 -121 -8 -256 0 -241
-8 -317 -33 -302 -6 3 -7 1 -3 -5 5 -9 13 -9 29 -1 12 7 19 8 15 4 -4 -5 -2
-15 4 -24 10 -13 10 -14 -1 -4 -7 6 -20 9 -28 6 -11 -4 -10 -8 4 -19 17 -13
17 -14 -1 -7 -14 5 -17 3 -11 -7 5 -8 4 -11 -3 -6 -6 3 -9 16 -7 27 3 16 0 20
-18 17 -18 -2 -22 -10 -24 -47 -3 -37 -1 -42 12 -31 8 7 15 9 15 6 0 -4 6 -2
13 4 6 5 24 19 39 30 15 11 39 44 53 74 l26 53 -2 267 c0 146 -2 266 -3 266 0
0 -14 -8 -31 -18z m-2 -567 c-3 -9 -8 -14 -10 -11 -3 3 -2 9 2 15 9 16 15 13
8 -4z"/>
<path d="M19575 14050 c-3 -5 -1 -10 4 -10 6 0 11 5 11 10 0 6 -2 10 -4 10 -3
0 -8 -4 -11 -10z"/>
<path d="M12868 14026 c-50 -26 -70 -44 -59 -51 6 -3 11 0 11 7 0 10 2 10 9 0
4 -8 12 -14 17 -14 20 -1 34 -11 39 -29 8 -23 15 -24 41 -4 16 13 17 16 4 25
-10 6 -11 10 -3 10 16 0 12 32 -6 54 -16 19 -19 20 -53 2z m25 -11 c-3 -9 -8
-13 -11 -11 -3 3 -10 2 -17 -2 -6 -4 -2 1 8 11 24 21 28 21 20 2z m27 -29 c0
-3 -4 -8 -10 -11 -5 -3 -10 -1 -10 4 0 6 5 11 10 11 6 0 10 -2 10 -4z"/>
<path d="M19471 14030 c-11 -6 -9 -10 5 -19 17 -10 16 -11 -7 -5 -26 5 -34 1
-213 -101 -29 -16 -70 -41 -92 -54 -21 -14 -43 -25 -49 -26 -5 0 -9 -7 -7 -14
1 -7 -2 -10 -7 -7 -14 9 -42 -5 -34 -17 4 -6 0 -8 -10 -4 -8 3 -21 0 -27 -8
-6 -7 -31 -23 -56 -34 -24 -12 -44 -26 -44 -31 0 -6 -3 -9 -7 -8 -10 2 -66
-21 -73 -30 -3 -4 -23 -16 -45 -28 -22 -12 -62 -35 -90 -51 -27 -17 -91 -55
-142 -84 -50 -29 -89 -57 -86 -63 3 -5 1 -6 -5 -2 -11 6 -112 -48 -352 -189
-69 -40 -144 -83 -168 -95 -24 -12 -39 -26 -35 -32 4 -7 1 -8 -6 -4 -7 5 -28
-3 -49 -17 -21 -13 -57 -34 -80 -46 -26 -13 -40 -26 -36 -33 4 -7 3 -8 -4 -4
-15 9 -73 -24 -65 -37 3 -6 1 -7 -5 -3 -14 8 -112 -42 -112 -57 0 -5 6 -7 14
-4 15 6 16 -17 1 -30 -4 -5 -5 -2 0 6 6 11 4 13 -9 8 -10 -4 -15 -3 -11 3 3 6
-1 10 -9 10 -9 0 -16 -5 -16 -12 0 -6 -3 -9 -6 -5 -3 3 -24 -5 -45 -19 -21
-13 -43 -24 -49 -24 -6 0 -9 -4 -6 -9 3 -5 -2 -8 -12 -7 -9 0 -16 -4 -15 -11
2 -8 -4 -10 -14 -6 -12 5 -14 3 -8 -7 5 -8 4 -11 -2 -7 -6 4 -51 -16 -99 -45
-49 -28 -116 -67 -149 -85 -33 -19 -67 -41 -75 -48 -8 -8 -19 -15 -25 -17 -5
-2 -9 -6 -8 -10 2 -4 -3 -5 -11 -2 -7 3 -20 -1 -27 -9 -8 -7 -17 -14 -22 -15
-4 -1 -26 -12 -50 -26 -23 -13 -54 -30 -69 -37 -16 -7 -28 -16 -28 -21 0 -4
-5 -8 -11 -8 -6 0 -37 -15 -68 -34 -31 -19 -78 -46 -106 -62 -48 -26 -122 -73
-175 -111 -18 -14 -22 -14 -15 -3 6 11 3 10 -12 -2 -11 -10 -23 -18 -28 -18
-10 0 -108 -61 -116 -73 -3 -5 -10 -9 -15 -9 -22 -1 -53 -22 -47 -31 3 -6 1
-7 -6 -3 -9 6 -124 -54 -141 -74 -3 -3 -18 -11 -33 -18 -15 -7 -26 -16 -23
-20 3 -5 -5 -8 -17 -8 -12 1 -21 -4 -20 -11 2 -7 -3 -10 -11 -7 -7 3 -28 -7
-46 -23 -19 -15 -41 -28 -49 -28 -9 0 -15 -6 -14 -12 3 -12 -10 -18 -31 -14
-4 1 -13 -2 -20 -7 -6 -5 -33 -22 -61 -37 -161 -88 -194 -109 -182 -118 8 -6
6 -7 -6 -3 -21 7 -102 -37 -111 -60 -3 -8 -10 -13 -15 -9 -12 7 -143 -64 -136
-75 3 -4 -2 -11 -11 -14 -8 -3 -12 -2 -9 3 3 6 -23 -7 -59 -27 -41 -24 -60
-40 -52 -45 7 -6 4 -7 -7 -3 -18 6 -146 -64 -191 -103 -10 -9 -19 -15 -20 -13
0 2 -9 0 -18 -3 -10 -4 -15 -11 -12 -16 3 -5 -3 -6 -12 -2 -12 4 -15 3 -10 -6
5 -8 3 -11 -5 -9 -20 4 -119 -54 -112 -66 3 -5 1 -6 -5 -2 -11 6 -161 -77
-173 -96 -3 -5 -10 -10 -15 -10 -22 0 -75 -29 -69 -38 3 -6 0 -7 -9 -4 -9 3
-16 1 -16 -5 0 -6 -3 -10 -7 -9 -13 3 -66 -28 -86 -50 -11 -11 -24 -18 -31
-16 -7 3 -19 -2 -26 -11 -7 -8 -17 -15 -22 -15 -5 0 -28 -12 -51 -27 -23 -16
-49 -29 -57 -31 -8 -2 -22 -10 -31 -18 -8 -8 -21 -14 -27 -14 -6 0 -14 -5 -18
-12 -4 -6 -3 -8 3 -5 5 3 10 0 10 -8 0 -10 -5 -11 -17 -5 -12 7 -58 -15 -183
-86 l-165 -96 10 -28 c9 -28 26 -40 131 -99 21 -12 44 -18 50 -15 7 4 9 4 5
-1 -9 -9 14 -24 136 -91 43 -24 82 -42 86 -39 5 3 12 0 16 -6 5 -8 3 -9 -6 -4
-9 5 -11 4 -6 -4 10 -16 64 -5 90 18 10 9 21 16 25 16 3 0 5 4 3 8 -1 5 2 6 7
3 13 -9 42 4 35 16 -3 5 0 8 7 7 18 -3 69 21 69 33 0 4 7 8 15 8 8 0 23 8 33
18 10 10 24 16 30 14 7 -2 12 1 12 7 0 6 4 11 10 11 5 0 33 14 62 31 29 17 67
39 83 48 120 65 263 157 258 165 -3 5 -1 6 5 2 6 -4 30 3 52 16 37 21 51 38
32 38 -4 0 -12 -3 -18 -7 -5 -5 -2 -1 8 8 9 9 14 20 10 23 -3 4 2 4 12 0 12
-5 14 -9 6 -14 -7 -4 -8 -10 -3 -13 5 -3 33 10 63 28 30 19 67 37 83 40 15 4
25 10 22 14 -2 5 35 8 83 7 83 -1 90 -3 152 -41 36 -22 68 -39 73 -37 4 1 7
-3 7 -9 0 -6 7 -8 16 -5 10 4 13 2 8 -6 -5 -8 -2 -9 9 -5 10 4 16 2 14 -5 -1
-7 3 -12 8 -13 6 0 21 -8 35 -16 104 -66 183 -108 192 -103 6 4 8 3 5 -3 -3
-5 6 -19 22 -30 42 -32 71 -131 71 -246 0 -50 -27 -762 -60 -1582 -64 -1622
-59 -1559 -124 -1701 -35 -76 -109 -187 -163 -245 -25 -27 -44 -51 -42 -53 2
-2 56 -33 119 -69 85 -48 118 -62 128 -54 9 7 16 7 25 -2 9 -10 8 -11 -6 -5
-12 4 -16 2 -12 -8 6 -16 93 -63 112 -61 7 0 10 -3 7 -8 -3 -5 2 -9 10 -9 9 0
16 -4 16 -8 0 -8 131 -82 144 -82 4 0 4 6 0 13 -4 6 9 -5 29 -26 33 -34 48
-42 70 -38 4 0 7 -3 7 -8 0 -14 70 -52 82 -45 6 4 8 3 5 -3 -4 -6 6 -16 21
-22 15 -7 28 -11 28 -9 1 1 11 -6 23 -16 12 -11 21 -16 21 -12 0 4 16 -5 35
-20 19 -14 35 -22 35 -18 0 5 5 1 11 -8 5 -10 15 -18 20 -18 6 0 22 -9 36 -19
13 -11 31 -17 40 -14 10 4 14 2 10 -3 -3 -6 8 -18 24 -28 25 -15 33 -16 47 -4
15 11 15 11 5 -3 -16 -20 -5 -33 14 -17 11 9 12 7 6 -7 -5 -15 -3 -17 11 -12
11 5 15 3 10 -5 -5 -8 -2 -9 10 -5 11 5 15 3 10 -5 -5 -8 -2 -9 10 -5 10 4 15
3 11 -3 -3 -6 4 -14 17 -20 13 -5 34 -18 48 -27 13 -10 21 -12 16 -5 -5 8 -3
11 6 10 7 -2 12 5 12 15 -2 15 1 16 13 5 10 -8 11 -14 4 -16 -6 -2 -8 -9 -5
-14 4 -7 2 -8 -4 -4 -7 4 -12 3 -12 -1 0 -5 25 -23 55 -40 54 -31 54 -31 78
-13 22 17 24 17 24 2 0 -9 -4 -23 -10 -29 -5 -7 -7 -14 -3 -14 15 -3 23 -6 49
-19 15 -7 27 -17 27 -22 0 -4 6 -8 14 -8 7 0 25 -9 40 -21 14 -11 26 -17 26
-12 0 4 4 3 8 -2 14 -20 63 -46 74 -39 6 4 8 3 5 -3 -5 -8 37 -35 178 -113 22
-12 46 -27 54 -34 12 -9 13 -8 7 4 -4 9 -1 8 7 -2 15 -19 32 -23 40 -10 2 4 2
1 1 -6 -4 -15 86 -73 104 -67 7 3 11 1 8 -4 -6 -9 22 -26 37 -23 4 1 7 -2 7
-8 0 -5 8 -7 18 -3 9 3 14 2 9 -2 -7 -8 87 -74 106 -75 4 0 26 -12 48 -26 23
-14 38 -20 33 -12 -4 7 5 0 19 -15 15 -15 32 -25 37 -22 6 3 10 2 10 -2 0 -5
14 -17 30 -27 24 -13 34 -15 45 -6 9 8 15 8 20 0 4 -6 2 -9 -3 -8 -6 2 -10 0
-11 -4 -1 -5 1 -8 4 -8 3 1 13 -6 21 -15 9 -8 20 -12 25 -9 6 3 2 12 -8 20
-17 13 -17 14 1 7 15 -5 17 -3 11 8 -7 11 -6 12 7 2 8 -7 17 -11 20 -8 2 3 5
-2 5 -9 0 -8 -5 -14 -10 -13 -5 1 -11 -3 -14 -10 -5 -15 53 -46 69 -37 6 4 8
3 5 -3 -4 -6 7 -16 23 -23 17 -7 30 -16 30 -20 0 -5 8 -6 19 -3 10 3 22 0 25
-6 5 -7 0 -9 -11 -5 -10 3 -3 -3 15 -15 18 -12 36 -21 41 -21 5 0 14 -7 21
-15 9 -10 24 -13 50 -10 28 3 41 0 51 -13 13 -15 12 -16 -4 -3 -9 8 -21 11
-24 7 -4 -4 -1 -11 7 -16 9 -6 10 -10 3 -10 -7 0 -16 8 -22 17 -5 10 -13 15
-17 11 -4 -4 6 -18 22 -30 59 -44 134 -130 161 -186 l28 -57 3 -319 c3 -309 2
-322 -19 -383 -35 -97 -134 -205 -248 -270 -26 -15 -95 -56 -156 -92 -60 -36
-117 -69 -127 -73 -9 -4 -35 -19 -58 -33 -34 -21 -145 -86 -335 -195 -167 -96
-604 -351 -652 -381 -34 -22 -65 -39 -68 -39 -3 0 -54 -29 -113 -64 -146 -86
-966 -563 -1022 -594 -25 -14 -84 -49 -132 -78 -48 -30 -90 -54 -92 -54 -2 0
-109 -61 -238 -136 -191 -113 -767 -447 -883 -514 -80 -47 -290 -168 -427
-248 -84 -49 -252 -147 -373 -217 -121 -70 -256 -149 -300 -175 -44 -26 -129
-76 -190 -110 -60 -35 -146 -85 -190 -111 -44 -26 -96 -56 -115 -66 -81 -46
-599 -347 -640 -373 -192 -121 -360 -189 -550 -225 -143 -28 -440 -26 -576 3
-191 41 -302 87 -514 212 -52 31 -212 124 -355 207 -450 260 -789 455 -821
473 -45 26 -281 163 -342 199 -29 17 -55 31 -57 31 -2 0 -47 26 -102 58 -84
50 -495 288 -603 349 -19 11 -89 52 -155 90 -123 72 -366 212 -420 243 -16 9
-112 65 -213 123 -101 59 -185 107 -188 107 -2 0 -21 11 -42 23 -43 28 -239
142 -657 382 -174 100 -342 197 -520 300 -153 89 -666 385 -705 407 -19 11
-60 35 -91 54 -31 19 -59 34 -62 34 -3 0 -36 19 -73 42 -38 23 -98 58 -134 78
-370 207 -750 436 -765 460 -4 6 -11 7 -17 4 -6 -4 -8 -2 -5 3 4 6 0 16 -8 23
-26 21 -81 114 -93 155 -8 27 -11 144 -11 350 1 351 1 375 10 369 4 -2 10 3
13 12 4 9 2 13 -5 8 -8 -5 -8 -1 0 14 6 11 16 22 23 24 14 5 3 38 -13 38 -8 0
-7 -6 2 -18 13 -15 12 -16 -4 -3 -9 7 -17 10 -17 6 0 -4 -7 -2 -15 5 -14 11
-19 7 -16 -12 1 -8 -14 -12 -35 -9 -6 1 -17 -6 -24 -14 -7 -8 -20 -15 -29 -15
-13 -1 -13 -3 3 -15 23 -18 14 -20 -16 -4 -17 9 -20 9 -16 -2 4 -9 -3 -14 -18
-15 -14 -1 -37 -10 -52 -20 -15 -10 -44 -27 -64 -37 -21 -11 -35 -24 -32 -29
4 -6 1 -9 -7 -6 -7 2 -38 -11 -68 -29 -30 -18 -59 -33 -64 -33 -4 0 -5 -4 -2
-10 3 -5 -2 -10 -11 -10 -17 0 -144 -67 -144 -76 0 -3 10 0 23 6 20 10 21 10
4 -4 -11 -8 -25 -12 -31 -10 -7 3 -19 -2 -26 -10 -7 -9 -16 -13 -21 -10 -5 3
-9 0 -9 -5 0 -6 -7 -11 -15 -11 -8 0 -15 -5 -15 -12 0 -6 -3 -8 -7 -5 -3 4
-12 -1 -20 -11 -8 -9 -11 -11 -7 -3 8 16 -4 10 -51 -24 -16 -12 -40 -25 -53
-29 -20 -7 -21 -10 -10 -23 11 -14 11 -15 -7 -6 -25 13 -81 -17 -64 -34 8 -8
7 -13 -2 -18 -7 -5 -10 -4 -6 2 4 6 0 14 -8 17 -9 3 -18 -1 -21 -9 -4 -8 -9
-13 -13 -11 -4 3 -20 -4 -37 -15 -16 -11 -40 -24 -53 -30 -19 -8 -21 -12 -11
-24 8 -10 9 -15 2 -15 -6 0 -13 4 -16 9 -4 5 -16 4 -30 -2 -18 -9 -22 -15 -14
-25 8 -10 7 -11 -7 -6 -14 6 -16 4 -10 -7 8 -12 6 -12 -8 0 -9 7 -18 11 -18 7
-1 -3 -2 -10 -3 -15 0 -5 -5 -13 -10 -18 -5 -5 -6 -3 -2 5 10 17 -3 14 -49
-13 -22 -13 -55 -31 -73 -39 -21 -10 -31 -20 -26 -27 4 -7 2 -10 -7 -7 -16 6
-90 -32 -84 -43 3 -4 -2 -10 -11 -13 -9 -4 -12 -2 -8 5 3 6 -12 0 -34 -12 -29
-17 -38 -27 -31 -36 8 -8 4 -10 -11 -6 -12 3 -25 0 -30 -6 -4 -7 -13 -13 -21
-15 -29 -5 -79 -37 -73 -47 3 -6 0 -9 -7 -8 -22 4 -142 -59 -160 -84 -3 -5
-10 -8 -15 -8 -5 1 -16 -5 -24 -12 -8 -7 -17 -13 -20 -13 -25 -4 -49 -17 -45
-25 4 -5 -3 -9 -14 -9 -11 0 -26 -7 -34 -15 -8 -8 -17 -11 -21 -8 -3 4 -6 1
-6 -4 0 -6 3 -13 8 -16 4 -2 1 -2 -6 0 -19 4 -84 -25 -78 -36 3 -5 -2 -8 -12
-7 -9 0 -16 -4 -15 -11 2 -7 -4 -10 -12 -7 -8 4 -15 1 -15 -7 0 -7 -3 -10 -6
-6 -10 10 -86 -33 -81 -46 3 -7 10 -11 16 -9 9 2 9 -3 1 -18 -13 -24 -14 -24
-31 -2 -13 15 -12 16 4 3 20 -16 24 1 3 18 -11 9 -17 8 -29 -4 -9 -8 -21 -15
-27 -15 -6 0 -8 -5 -4 -12 4 -6 3 -8 -4 -4 -12 7 -108 -47 -130 -72 -7 -10
-11 -11 -7 -5 3 7 -21 -3 -54 -23 -62 -37 -75 -49 -44 -37 23 8 14 -1 -16 -17
-19 -10 -22 -10 -15 2 6 10 5 11 -7 1 -8 -6 -18 -13 -24 -15 -5 -1 -10 -8 -10
-15 0 -6 -4 -15 -9 -20 -5 -4 -6 -3 -2 4 4 8 1 13 -8 13 -21 0 -86 -40 -86
-53 0 -6 -3 -7 -7 -4 -3 4 -15 0 -25 -10 -10 -9 -18 -12 -18 -7 0 5 -4 5 -8
-1 -4 -5 -32 -23 -62 -38 -96 -49 -150 -83 -143 -90 3 -4 1 -7 -5 -7 -21 0
-27 -3 -38 -18 -6 -8 -15 -12 -21 -9 -5 4 -19 -1 -29 -11 -11 -9 -26 -18 -34
-20 -8 -2 -22 -10 -30 -18 -12 -12 -12 -14 7 -14 12 0 25 5 28 10 4 6 10 8 14
6 4 -3 13 -1 21 5 11 6 11 9 2 9 -10 0 -10 3 0 14 17 18 32 -2 16 -21 -13 -16
4 -17 19 -2 6 6 9 17 7 24 -3 7 -1 16 5 20 7 4 10 -6 9 -28 -3 -32 -5 -34 -35
-31 -48 4 -49 -12 -4 -56 33 -32 41 -47 41 -75 0 -32 2 -35 30 -35 28 0 30 -2
30 -40 0 -34 3 -40 21 -40 21 0 79 -50 79 -69 0 -6 4 -11 8 -11 5 0 17 -18 27
-40 13 -29 24 -40 40 -40 16 0 27 -11 40 -40 10 -22 22 -40 27 -40 11 0 98
-89 98 -100 0 -5 9 -11 19 -15 11 -3 23 -15 26 -26 4 -10 13 -19 21 -19 10 0
14 -12 14 -40 l0 -40 40 0 40 0 0 -40 0 -40 40 0 40 0 0 -40 0 -40 40 0 40 0
0 -40 0 -40 40 0 40 0 0 -40 0 -40 40 0 40 0 0 -40 0 -40 40 0 40 0 0 -40 0
-40 40 0 40 0 0 -40 0 -40 40 0 c28 0 40 -4 40 -14 0 -8 9 -17 19 -21 11 -3
23 -15 26 -26 4 -10 11 -19 16 -19 11 0 99 -88 99 -99 0 -4 18 -16 40 -26 29
-13 40 -24 40 -40 0 -16 11 -27 40 -40 22 -10 40 -22 40 -27 0 -4 5 -8 11 -8
19 0 69 -58 69 -79 0 -18 6 -21 40 -21 38 0 40 -2 40 -30 0 -28 3 -30 35 -30
28 0 44 -9 80 -46 25 -25 45 -49 45 -53 0 -4 18 -16 40 -26 22 -10 40 -22 40
-27 0 -4 5 -8 11 -8 14 0 69 -55 69 -69 0 -6 18 -11 40 -11 36 0 40 -2 40 -25
0 -22 4 -25 40 -25 37 0 40 -2 40 -28 0 -24 7 -32 40 -47 22 -10 40 -22 40
-27 0 -4 9 -8 19 -8 10 0 21 -7 25 -15 3 -8 12 -15 21 -15 9 0 15 -9 15 -25 0
-22 4 -25 40 -25 27 0 40 -4 40 -13 0 -8 18 -22 40 -32 26 -12 40 -25 40 -37
0 -14 8 -18 40 -18 38 0 40 -2 40 -30 0 -28 2 -30 40 -30 33 0 40 -3 40 -20 0
-17 7 -20 40 -20 38 0 40 -2 40 -30 0 -28 2 -30 40 -30 29 0 40 -4 40 -15 0
-11 11 -15 40 -15 38 0 40 -2 40 -30 0 -28 2 -30 40 -30 36 0 40 -2 40 -25 0
-22 4 -25 40 -25 33 0 40 -3 40 -20 0 -17 7 -20 40 -20 33 0 40 -3 40 -20 0
-17 7 -20 40 -20 33 0 40 -3 40 -20 0 -17 7 -20 40 -20 38 0 40 -2 40 -30 0
-28 2 -30 40 -30 29 0 40 -4 40 -15 0 -11 11 -15 40 -15 38 0 40 -2 40 -30 0
-28 2 -30 40 -30 36 0 40 -2 40 -25 0 -22 4 -25 40 -25 29 0 40 -4 40 -15 0
-11 11 -15 40 -15 36 0 40 -2 40 -25 0 -22 4 -25 40 -25 29 0 40 -4 40 -15 0
-11 11 -15 40 -15 22 0 40 -4 40 -10 0 -5 18 -10 40 -10 38 0 40 -2 40 -30 0
-28 2 -30 40 -30 22 0 40 -4 40 -10 0 -5 18 -10 40 -10 36 0 40 -2 40 -25 0
-22 4 -25 40 -25 22 0 40 -4 40 -10 0 -5 18 -10 40 -10 33 0 40 -3 40 -20 0
-17 7 -20 40 -20 33 0 40 -3 40 -20 0 -17 7 -20 40 -20 33 0 40 -3 40 -20 0
-20 7 -20 4560 -20 4553 0 4560 0 4560 20 0 17 7 20 40 20 33 0 40 3 40 20 0
17 7 20 40 20 33 0 40 3 40 20 0 17 7 20 40 20 22 0 40 5 40 10 0 6 18 10 40
10 36 0 40 3 40 25 0 23 4 25 40 25 22 0 40 5 40 10 0 6 18 10 40 10 38 0 40
2 40 30 0 28 2 30 40 30 22 0 40 5 40 10 0 6 18 10 40 10 29 0 40 4 40 15 0
11 11 15 40 15 36 0 40 3 40 25 0 23 4 25 40 25 29 0 40 4 40 15 0 11 11 15
40 15 36 0 40 3 40 25 0 23 4 25 40 25 38 0 40 2 40 30 0 28 2 30 40 30 29 0
40 4 40 15 0 11 11 15 40 15 38 0 40 2 40 30 0 28 2 30 40 30 33 0 40 3 40 20
0 17 7 20 40 20 33 0 40 3 40 20 0 17 7 20 40 20 33 0 40 3 40 20 0 17 7 20
40 20 36 0 40 3 40 25 0 23 4 25 40 25 38 0 40 2 40 30 0 28 2 30 40 30 29 0
40 4 40 15 0 11 11 15 40 15 38 0 40 2 40 30 0 28 2 30 40 30 33 0 40 3 40 20
0 17 7 20 40 20 38 0 40 2 40 30 0 28 2 30 40 30 32 0 40 4 40 18 0 12 14 25
40 37 22 10 40 24 40 32 0 9 13 13 40 13 36 0 40 3 40 25 0 16 6 25 15 25 9 0
18 7 21 15 4 8 15 15 25 15 10 0 19 4 19 8 0 5 18 17 40 27 33 15 40 23 40 47
0 26 3 28 40 28 36 0 40 3 40 25 0 23 4 25 40 25 22 0 40 5 40 11 0 14 55 69
69 69 6 0 11 4 11 8 0 5 18 17 40 27 22 10 40 22 40 26 0 4 20 28 45 53 36 37
52 46 80 46 32 0 35 2 35 30 0 28 2 30 40 30 34 0 40 3 40 21 0 21 50 79 69
79 6 0 11 4 11 8 0 5 18 17 40 27 29 13 40 24 40 40 0 16 11 27 40 40 22 10
40 22 40 26 0 11 88 99 99 99 5 0 12 9 16 19 3 11 15 23 26 26 10 4 19 13 19
21 0 10 12 14 40 14 l40 0 0 40 0 40 40 0 40 0 0 40 0 40 40 0 40 0 0 40 0 40
40 0 40 0 0 40 0 40 40 0 40 0 0 40 0 40 40 0 40 0 0 40 0 40 40 0 40 0 0 40
0 40 40 0 40 0 0 40 c0 28 4 40 14 40 8 0 17 9 21 19 3 11 15 23 26 26 10 4
19 10 19 15 0 11 87 100 98 100 5 0 17 18 27 40 13 29 24 40 40 40 16 0 27 11
40 40 10 22 22 40 27 40 4 0 8 5 8 11 0 19 58 69 79 69 18 0 21 6 21 40 0 38
2 40 30 40 28 0 30 3 30 34 0 28 9 44 45 80 25 25 49 46 53 46 5 0 17 18 27
40 10 22 22 40 27 40 4 0 8 5 8 11 0 14 55 69 69 69 6 0 11 15 11 34 0 28 9
44 45 80 25 25 49 46 55 46 5 0 10 18 10 40 0 39 1 40 35 40 34 0 35 1 35 40
0 29 4 40 15 40 11 0 15 11 15 40 0 39 1 40 35 40 34 0 35 1 35 40 0 38 2 40
30 40 28 0 30 2 30 40 0 29 4 40 15 40 11 0 15 11 15 40 0 38 2 40 30 40 28 0
30 2 30 40 0 36 3 40 25 40 23 0 25 4 25 40 0 33 3 40 20 40 17 0 20 7 20 40
0 38 2 40 30 40 28 0 30 2 30 40 0 29 4 40 15 40 11 0 15 11 15 40 0 38 2 40
30 40 28 0 30 2 30 40 0 36 3 40 25 40 23 0 25 4 25 40 0 29 4 40 15 40 11 0
15 11 15 40 0 36 3 40 25 40 23 0 25 4 25 40 0 29 4 40 15 40 11 0 15 11 15
40 0 36 3 40 25 40 l25 0 0 4160 0 4160 -25 0 c-22 0 -25 4 -25 40 0 29 -4 40
-15 40 -11 0 -15 11 -15 40 0 36 -2 40 -25 40 -22 0 -25 4 -25 40 0 29 -4 40
-15 40 -11 0 -15 11 -15 40 0 36 -2 40 -25 40 -22 0 -25 4 -25 40 0 38 -2 40
-30 40 -28 0 -30 2 -30 40 0 29 -4 40 -15 40 -11 0 -15 11 -15 40 0 38 -2 40
-30 40 -28 0 -30 2 -30 40 0 33 -3 40 -20 40 -17 0 -20 7 -20 40 0 25 -5 40
-12 40 -10 0 -9 3 1 9 8 5 9 11 3 15 -6 3 -13 2 -17 -4 -10 -16 -25 -11 -18 6
4 12 1 15 -13 12 -11 -2 -18 -11 -16 -21 3 -19 -13 -23 -24 -5 -4 7 -3 8 4 4
7 -4 12 -5 12 -2 0 12 -37 24 -49 16z m-45 -59 c-6 -9 -66 -33 -66 -26 0 6 52
34 63 35 5 0 6 -4 3 -9z m-156 -85 c0 -3 -4 -8 -10 -11 -5 -3 -10 -1 -10 4 0
6 5 11 10 11 6 0 10 -2 10 -4z m-160 -101 c0 -2 -6 -5 -13 -8 -8 -3 -14 1 -14
8 0 7 6 11 14 8 7 -3 13 -6 13 -8z m-713 -410 c0 -8 -4 -12 -9 -9 -5 3 -6 10
-3 15 9 13 12 11 12 -6z m-492 -305 c-3 -5 -11 -10 -16 -10 -6 0 -7 5 -4 10 3
6 11 10 16 10 6 0 7 -4 4 -10z m-1525 -844 c0 -3 -4 -8 -10 -11 -5 -3 -10 -1
-10 4 0 6 5 11 10 11 6 0 10 -2 10 -4z m-300 -212 c0 -2 -9 0 -20 6 -11 6 -20
13 -20 16 0 2 9 0 20 -6 11 -6 20 -13 20 -16z m-572 -310 c5 3 9 -1 9 -9 0
-16 -31 -4 -43 18 -6 8 -3 8 9 -1 9 -8 20 -11 25 -8z m-951 -529 c0 -8 -4 -12
-9 -9 -5 3 -6 10 -3 15 9 13 12 11 12 -6z m-47 -52 c0 -3 -7 -3 -15 1 -8 3
-15 1 -15 -5 0 -6 -5 -7 -11 -3 -8 4 -7 9 2 14 12 8 39 3 39 -7z m980 -103 c0
-5 -2 -10 -4 -10 -3 0 -8 5 -11 10 -3 6 -1 10 4 10 6 0 11 -4 11 -10z m-1354
-112 c-10 -6 -22 -6 -26 -2 -5 5 3 10 18 11 22 1 24 0 8 -9z m1769 -197 c3 -5
2 -12 -3 -15 -5 -3 -9 1 -9 9 0 17 3 19 12 6z m-1830 -91 c3 -6 -1 -7 -9 -4
-18 7 -21 14 -7 14 6 0 13 -4 16 -10z m-45 -14 c-7 -7 -13 -7 -20 0 -6 6 -3
10 10 10 13 0 16 -4 10 -10z m90 -52 c0 -8 -19 -13 -24 -6 -3 5 1 9 9 9 8 0
15 -2 15 -3z m32 -3 c8 11 9 11 5 -2 -3 -9 0 -23 6 -30 7 -7 3 -6 -9 4 -11 9
-24 14 -28 10 -4 -4 -4 1 0 12 5 13 9 15 12 6 4 -11 6 -11 14 0z m205 -16 c0
-8 -4 -12 -9 -9 -5 3 -6 10 -3 15 9 13 12 11 12 -6z m1634 -3824 c3 -1 6 -8 6
-17 0 -15 -1 -15 -12 0 -7 8 -15 13 -18 10 -3 -3 -14 -1 -24 5 -15 8 -13 9 12
6 17 -2 33 -4 36 -4z m309 -206 c0 -8 -4 -15 -10 -15 -5 0 -7 7 -4 15 4 8 8
15 10 15 2 0 4 -7 4 -15z m205 -114 c3 -5 2 -12 -3 -15 -5 -3 -9 1 -9 9 0 17
3 19 12 6z m52 -15 c0 -15 -21 -16 -34 -1 -4 4 -3 5 4 1 6 -3 14 -2 18 4 8 14
12 13 12 -4z m547 -312 c3 -8 2 -12 -4 -9 -6 3 -10 10 -10 16 0 14 7 11 14 -7z
m173 -79 c0 -7 -6 -12 -13 -12 -7 0 -15 5 -17 12 -3 6 3 11 12 11 10 0 18 -5
18 -11z m-43 -3 c2 -4 1 -14 -3 -21 -6 -9 -11 -10 -15 -2 -4 6 -1 11 6 11 9 0
9 3 -2 10 -9 6 -10 10 -3 10 6 0 14 -4 17 -8z m435 -236 c8 -10 9 -16 1 -21
-6 -4 -9 -2 -8 3 3 10 -1 12 -24 12 -9 0 -8 -4 2 -10 12 -8 10 -9 -7 -7 -12 2
-25 6 -28 10 -3 4 -2 5 1 2 4 -2 16 2 28 10 25 18 21 18 35 1z m111 -86 c-8
-5 -19 -10 -25 -10 -5 0 -3 5 5 10 8 5 20 10 25 10 6 0 3 -5 -5 -10z m124 -89
c-2 -3 -12 3 -22 13 -16 17 -16 18 5 5 12 -7 20 -15 17 -18z m36 14 c0 -8 -4
-15 -10 -15 -5 0 -7 7 -4 15 4 8 8 15 10 15 2 0 4 -7 4 -15z m25 -53 c-3 -3
-11 0 -18 7 -9 10 -8 11 6 5 10 -3 15 -9 12 -12z m349 -189 c4 -11 1 -11 -14
-3 -24 13 -25 17 -5 17 8 0 16 -6 19 -14z m86 -19 c0 -2 -9 0 -20 6 -11 6 -20
13 -20 16 0 2 9 0 20 -6 11 -6 20 -13 20 -16z m35 -64 c3 -6 -1 -7 -9 -4 -23
9 -20 1 10 -27 26 -23 26 -23 20 -2 -4 12 -3 24 2 26 6 5 9 -33 3 -52 0 -3
-14 8 -31 24 -16 15 -27 32 -24 37 7 11 21 10 29 -2z m-14438 -206 c-3 -3 -12
-4 -19 -1 -8 3 -5 6 6 6 11 1 17 -2 13 -5z m-151 -53 c-6 -9 -46 -22 -46 -15
0 3 10 9 23 14 29 11 29 11 23 1z m-161 -101 c3 -6 -1 -7 -9 -4 -18 7 -21 14
-7 14 6 0 13 -4 16 -10z m-129 -59 c-7 -10 22 -24 33 -16 4 2 8 -1 8 -8 0 -7
-8 -13 -18 -13 -10 0 -16 3 -13 7 2 4 -3 10 -12 13 -13 5 -12 26 2 26 3 0 3
-4 0 -9z m-271 -171 c3 -6 -1 -7 -9 -4 -18 7 -21 14 -7 14 6 0 13 -4 16 -10z
m-95 -90 c0 -5 -2 -10 -4 -10 -3 0 -8 5 -11 10 -3 6 -1 10 4 10 6 0 11 -4 11
-10z m-165 -72 c5 -4 0 -6 -12 -6 -13 1 -19 7 -16 15 3 8 8 10 12 6 3 -4 10
-11 16 -15z m-271 -147 c6 -10 -10 -25 -37 -34 -11 -4 -16 -3 -12 3 3 6 12 10
20 10 8 0 17 5 21 12 5 8 2 9 -10 5 -10 -4 -15 -3 -11 3 8 12 22 13 29 1z
m1354 -86 c-3 -3 -9 2 -12 12 -6 14 -5 15 5 6 7 -7 10 -15 7 -18z m-1758 -139
c0 -2 -12 -11 -27 -20 l-28 -17 24 20 c23 21 31 25 31 17z m24 -32 c3 -8 2
-12 -4 -9 -6 3 -10 10 -10 16 0 14 7 11 14 -7z m-139 -83 c3 -5 2 -12 -3 -15
-5 -3 -9 1 -9 9 0 17 3 19 12 6z m-160 -71 c3 -5 1 -10 -4 -10 -6 0 -11 5 -11
10 0 6 2 10 4 10 3 0 8 -4 11 -10z m16965 -335 c0 -8 -4 -15 -10 -15 -5 0 -7
7 -4 15 4 8 8 15 10 15 2 0 4 -7 4 -15z m-17718 -72 c-6 -9 -16 -18 -23 -19
-8 -1 -23 -5 -34 -9 -11 -4 -2 4 20 19 48 30 49 31 37 9z m32 -8 c-4 -8 -10
-15 -15 -15 -4 0 -6 7 -3 15 4 8 10 15 15 15 4 0 6 -7 3 -15z m-149 -55 c-3
-5 4 -11 17 -11 18 -1 19 -2 5 -6 -10 -3 -26 -2 -35 2 -14 5 -14 7 -2 15 19
12 23 12 15 0z m65 -30 c-8 -5 -19 -10 -25 -10 -5 0 -3 5 5 10 8 5 20 10 25
10 6 0 3 -5 -5 -10z m-56 -155 c3 -8 1 -15 -4 -15 -6 0 -10 7 -10 15 0 8 2 15
4 15 2 0 6 -7 10 -15z m17586 0 c0 -8 -4 -15 -10 -15 -5 0 -7 7 -4 15 4 8 8
15 10 15 2 0 4 -7 4 -15z m-13090 -80 c0 -2 -6 -5 -13 -8 -8 -3 -14 1 -14 8 0
7 6 11 14 8 7 -3 13 -6 13 -8z m-4016 -480 c3 -8 1 -15 -4 -15 -6 0 -10 7 -10
15 0 8 2 15 4 15 2 0 6 -7 10 -15z m16626 0 c0 -8 -4 -15 -10 -15 -5 0 -7 7
-4 15 4 8 8 15 10 15 2 0 4 -7 4 -15z m-16055 -565 c3 -5 -1 -10 -9 -10 -9 0
-16 5 -16 10 0 6 4 10 9 10 6 0 13 -4 16 -10z m15495 0 c0 -5 -7 -10 -16 -10
-8 0 -12 5 -9 10 3 6 10 10 16 10 5 0 9 -4 9 -10z m-14935 -480 c3 -5 -1 -10
-9 -10 -9 0 -16 5 -16 10 0 6 4 10 9 10 6 0 13 -4 16 -10z m14375 0 c0 -5 -7
-10 -16 -10 -8 0 -12 5 -9 10 3 6 10 10 16 10 5 0 9 -4 9 -10z m-14055 -240
c3 -5 -1 -10 -9 -10 -9 0 -16 5 -16 10 0 6 4 10 9 10 6 0 13 -4 16 -10z
m13735 0 c0 -5 -7 -10 -16 -10 -8 0 -12 5 -9 10 3 6 10 10 16 10 5 0 9 -4 9
-10z m-13415 -240 c3 -5 -1 -10 -9 -10 -9 0 -16 5 -16 10 0 6 4 10 9 10 6 0
13 -4 16 -10z m13095 0 c0 -5 -7 -10 -16 -10 -8 0 -12 5 -9 10 3 6 10 10 16
10 5 0 9 -4 9 -10z m-12855 -160 c3 -5 -1 -10 -9 -10 -9 0 -16 5 -16 10 0 6 4
10 9 10 6 0 13 -4 16 -10z m12615 0 c0 -5 -7 -10 -16 -10 -8 0 -12 5 -9 10 3
6 10 10 16 10 5 0 9 -4 9 -10z"/>
<path d="M8708 14009 c-10 -5 -18 -19 -18 -31 0 -11 8 -27 18 -34 16 -13 16
-14 -1 -8 -17 6 -18 -3 -16 -135 0 -77 3 -141 5 -141 3 0 18 7 34 15 31 16 38
31 18 37 -7 3 -5 7 6 11 9 4 15 3 11 -2 -3 -5 0 -13 6 -17 8 -5 10 -1 7 13 -3
12 0 20 7 20 7 0 12 -5 11 -11 -2 -6 -1 -8 1 -3 3 4 10 4 16 0 8 -5 8 -2 0 9
-7 8 -10 18 -6 21 13 13 -14 7 -33 -8 -10 -8 -22 -15 -26 -15 -5 0 -8 65 -8
145 0 80 -3 145 -7 145 -5 0 -16 -5 -25 -11z"/>
<path d="M8618 13955 c-22 -12 -28 -24 -34 -72 -5 -32 -8 -79 -9 -105 0 -27
-3 -48 -7 -48 -5 0 -8 -11 -8 -25 0 -18 -4 -23 -16 -18 -11 4 -12 8 -4 13 8 5
9 10 2 14 -6 3 -8 15 -5 26 3 11 2 28 -2 37 -6 15 -11 50 -17 110 -1 8 -11 5
-30 -8 -31 -23 -33 -29 -15 -48 6 -8 7 -11 1 -8 -8 5 -12 -35 -13 -142 -2
-127 0 -148 14 -148 13 0 15 18 15 113 0 62 4 115 8 118 5 3 9 0 9 -7 4 -64
17 -136 30 -156 8 -13 10 -20 4 -17 -6 4 -11 0 -11 -10 0 -15 2 -15 23 -2 26
18 34 62 15 86 -7 9 -8 13 -2 9 7 -4 15 0 18 9 9 24 6 42 -4 19 -8 -19 -9 -19
-9 2 -1 12 4 23 10 25 6 2 12 26 13 53 2 27 7 50 13 52 8 3 9 -10 6 -37 -4
-30 -2 -45 8 -51 10 -6 10 -9 2 -9 -9 0 -13 -16 -13 -46 0 -40 2 -45 18 -40
14 5 14 4 -2 -9 -11 -8 -17 -17 -14 -20 3 -3 13 2 22 11 14 14 17 40 15 180 0
90 -1 164 -2 164 -1 -1 -14 -7 -29 -15z m22 -9 c0 -2 -8 -10 -17 -17 -16 -13
-17 -12 -4 4 13 16 21 21 21 13z"/>
<path d="M12779 13948 c-19 -35 -21 -158 -4 -165 8 -3 12 -10 8 -17 -3 -6 -3
-8 1 -4 5 4 13 2 20 -3 6 -6 25 -19 42 -29 36 -21 48 -66 28 -105 -7 -13 -10
-25 -8 -27 7 -7 -41 -3 -53 5 -6 4 -9 16 -6 27 6 24 -5 25 -35 4 -19 -13 -22
-21 -16 -52 4 -20 11 -43 17 -49 12 -16 47 -17 47 -2 0 5 -5 7 -12 3 -7 -4 -8
-3 -4 4 5 8 13 9 24 3 20 -10 58 17 86 61 13 20 14 27 4 31 -8 3 -6 6 5 6 16
1 18 9 15 57 -2 31 -6 58 -11 61 -4 2 -5 8 -2 13 3 4 -3 14 -12 21 -9 8 -14 9
-10 2 8 -13 -18 -12 -30 2 -4 4 -2 5 5 1 6 -4 12 -4 12 1 0 4 -13 14 -30 21
-16 7 -31 21 -34 30 -9 29 -14 82 -7 82 3 0 12 9 19 20 10 16 10 20 0 18 -7
-2 -16 -7 -20 -13 -5 -6 -8 -5 -8 3 0 20 -18 14 -31 -10z m33 -145 c-6 -2 -9
-10 -6 -15 4 -7 2 -8 -5 -4 -13 9 -5 26 12 25 9 0 8 -2 -1 -6z m65 -58 c0 -8
-4 -12 -9 -9 -5 3 -6 10 -3 15 9 13 12 11 12 -6z m-87 -119 c0 -2 -7 -7 -16
-10 -8 -3 -12 -2 -9 4 6 10 25 14 25 6z m16 -51 c1 -8 -2 -15 -6 -15 -5 0 -8
9 -7 20 1 21 10 18 13 -5z m79 5 c-3 -5 -12 -10 -18 -10 -7 0 -6 4 3 10 19 12
23 12 15 0z"/>
<path d="M6504 13881 c4 -5 -3 -7 -14 -4 -11 3 -20 0 -20 -6 0 -6 -6 -10 -12
-8 -8 1 -12 -6 -10 -18 2 -16 1 -17 -7 -5 -5 8 -13 11 -17 7 -4 -3 -1 -13 5
-21 8 -10 9 -16 1 -21 -6 -4 -9 -3 -8 2 2 4 -1 8 -7 8 -5 0 -9 -3 -8 -7 2 -4
-6 -10 -17 -13 -11 -4 -17 -11 -14 -17 4 -6 10 -5 16 3 8 11 9 11 5 -1 -2 -8
-10 -15 -18 -15 -9 0 -13 -10 -12 -30 2 -22 0 -26 -7 -15 -8 12 -10 9 -10 -13
0 -20 4 -26 13 -21 9 6 9 5 0 -7 -12 -15 -10 -69 2 -90 4 -5 31 -24 61 -41 63
-35 91 -77 74 -108 -6 -11 -9 -24 -6 -28 3 -5 -21 -23 -52 -41 -31 -18 -52
-27 -45 -21 6 7 9 20 6 29 -4 14 -3 14 6 1 7 -9 11 -10 11 -3 0 6 -4 14 -9 17
-5 3 -7 15 -4 27 5 19 4 20 -16 8 -11 -8 -21 -17 -21 -22 0 -4 5 -5 12 -1 7 4
8 3 4 -4 -4 -6 -14 -8 -22 -5 -22 8 -14 -70 11 -96 20 -24 39 -18 32 10 -3 11
-1 17 4 13 5 -3 9 -12 9 -20 0 -22 13 -17 64 21 42 33 51 45 47 68 0 4 4 7 10
7 5 0 8 4 5 9 -4 5 -1 11 5 13 7 2 12 29 13 69 1 49 -4 70 -19 91 -23 32 -72
58 -92 51 -8 -3 -13 -2 -12 3 1 5 -1 17 -6 27 -6 15 -10 15 -24 5 -14 -11 -14
-11 -4 2 6 9 13 39 15 67 2 28 7 49 12 46 4 -3 12 1 17 8 19 31 61 3 51 -34
-4 -16 -2 -18 14 -8 37 21 54 38 54 55 0 10 -4 15 -9 12 -4 -3 -6 6 -3 19 2
15 0 25 -7 25 -7 0 -10 4 -7 9 3 5 -1 12 -10 15 -23 9 -36 7 -30 -3z m-85
-244 c8 -10 7 -14 -2 -14 -8 0 -14 6 -14 14 0 7 1 13 2 13 2 0 8 -6 14 -13z
m21 -42 c19 -22 8 -25 -12 -3 -10 10 -14 18 -9 18 5 0 14 -7 21 -15z m-20 -11
c0 -8 -19 -13 -24 -6 -3 5 1 9 9 9 8 0 15 -2 15 -3z m25 -32 c-3 -3 -11 0 -18
7 -9 10 -8 11 6 5 10 -3 15 -9 12 -12z m65 -57 c0 -5 -5 -3 -10 5 -5 8 -10 20
-10 25 0 6 5 3 10 -5 5 -8 10 -19 10 -25z"/>
<path d="M8392 13827 c-12 -7 -19 -17 -15 -22 4 -4 0 -5 -9 -2 -10 4 -18 3
-18 -1 0 -4 -13 -13 -29 -20 -19 -9 -29 -20 -28 -33 1 -10 5 -19 10 -19 5 0 7
6 4 13 -3 7 3 13 13 13 10 0 17 -3 14 -7 -2 -4 3 -15 12 -23 8 -9 11 -16 5
-16 -16 0 -14 -182 2 -199 10 -11 10 -13 0 -7 -9 5 -13 -1 -13 -18 0 -27 6
-31 27 -18 17 11 16 252 -2 266 -9 8 -10 17 -4 31 9 19 9 18 5 -2 -2 -13 0
-23 5 -23 5 0 9 7 9 16 0 17 23 44 37 44 5 0 9 9 10 20 2 23 -3 24 -35 7z
m-52 -51 c0 -2 -7 -7 -16 -10 -8 -3 -12 -2 -9 4 6 10 25 14 25 6z"/>
<path d="M6221 13728 c-12 -4 -20 -12 -16 -17 3 -5 0 -13 -6 -17 -8 -4 -9 -3
-5 4 4 7 4 12 -1 12 -12 0 -71 -63 -75 -80 -2 -8 -6 -18 -10 -21 -13 -9 -18
-100 -6 -93 6 4 6 -2 -1 -15 -10 -17 -9 -27 4 -49 22 -37 92 -77 109 -63 9 8
13 7 13 -4 0 -8 -5 -12 -11 -9 -6 3 -2 -3 9 -13 14 -12 20 -31 20 -60 0 -22
-3 -39 -6 -37 -3 2 -12 -8 -19 -21 -7 -13 -17 -22 -22 -19 -17 11 -20 -27 -3
-40 15 -11 16 -14 4 -21 -8 -5 -11 -5 -7 0 4 4 0 13 -8 20 -10 7 -19 32 -21
62 l-5 51 -34 -20 c-19 -11 -34 -26 -34 -33 0 -15 28 -28 42 -19 6 4 2 -5 -7
-20 -21 -31 -25 -33 -18 -6 3 11 0 20 -6 20 -6 0 -9 -10 -7 -22 3 -13 5 -28 5
-35 2 -23 38 -34 68 -21 36 16 89 59 86 70 -2 4 1 8 7 8 20 0 40 55 47 133 3
31 1 47 -7 47 -6 0 -8 5 -5 10 6 9 -8 14 -28 11 -5 -1 -6 3 -2 9 3 6 12 7 18
4 7 -4 2 3 -10 15 -23 22 -38 26 -46 14 -2 -5 -2 -2 -1 5 2 6 -1 12 -7 12 -6
0 -20 10 -31 23 -11 12 -17 17 -14 10 4 -6 3 -14 -2 -17 -5 -3 -9 23 -9 57 0
67 7 79 66 109 21 11 28 13 17 4 -19 -15 -13 -41 7 -30 8 5 8 3 0 -7 -7 -7
-13 -20 -13 -28 0 -10 10 -5 28 15 15 17 20 21 12 11 -14 -19 -14 -19 8 -8 27
14 31 61 5 61 -15 0 -15 2 -4 9 8 5 11 16 8 26 -4 9 -11 13 -17 10 -5 -3 -10
-2 -10 3 0 11 -20 11 -49 0z m33 -6 c3 -5 -1 -9 -9 -9 -8 0 -12 4 -9 9 3 4 7
8 9 8 2 0 6 -4 9 -8z m36 -16 c0 -2 -7 -7 -16 -10 -8 -3 -12 -2 -9 4 6 10 25
14 25 6z m-5 -46 c-3 -5 -12 -10 -18 -10 -7 0 -6 4 3 10 19 12 23 12 15 0z
m-91 -186 c3 -8 2 -12 -4 -9 -6 3 -10 10 -10 16 0 14 7 11 14 -7z m-30 -53
c-2 -3 -12 3 -22 13 -16 17 -16 18 5 5 12 -7 20 -15 17 -18z m58 12 c-6 -2 -9
-10 -6 -15 4 -7 2 -8 -5 -4 -13 9 -5 26 12 25 9 0 8 -2 -1 -6z m44 -53 c0 -12
-4 -16 -9 -11 -5 5 -6 14 -3 20 10 15 12 14 12 -9z m-121 -128 c-3 -3 -11 0
-18 7 -9 10 -8 11 6 5 10 -3 15 -9 12 -12z m128 3 c-3 -9 -8 -14 -10 -11 -3 3
-2 9 2 15 9 16 15 13 8 -4z m-113 -49 c0 -2 -7 -9 -15 -16 -13 -11 -14 -10 -9
4 5 14 24 23 24 12z m15 -35 c9 -15 -27 -30 -50 -20 l-20 9 20 -1 c36 -2 46 1
40 11 -3 6 -4 10 -1 10 3 0 7 -4 11 -9z"/>
<path d="M8225 13728 c-4 -10 -5 -49 -3 -88 3 -52 0 -70 -9 -70 -7 0 -13 -4
-13 -9 0 -5 -9 -11 -20 -14 -18 -5 -20 0 -21 46 -1 29 0 63 1 76 1 15 -2 21
-9 16 -6 -3 -9 -10 -7 -14 3 -4 0 -13 -6 -21 -8 -12 -9 -11 -4 3 4 12 2 17 -6
15 -14 -5 -20 -38 -6 -38 7 0 6 -5 -1 -14 -8 -9 -11 -61 -10 -154 l1 -141 24
11 c22 10 24 17 25 87 0 42 4 85 9 96 5 11 9 14 9 7 1 -9 9 -9 34 4 19 10 27
11 20 3 -10 -10 -10 -16 0 -28 9 -12 9 -13 0 -7 -8 4 -13 2 -13 -8 0 -8 5 -18
10 -21 6 -4 7 -12 3 -18 -12 -20 -14 -57 -3 -57 5 0 10 5 10 11 0 5 5 7 10 4
17 -11 13 297 -4 321 -14 18 -15 18 -21 2z"/>
<path d="M5980 13578 c0 -4 5 -8 12 -8 6 0 8 -3 5 -6 -4 -4 -13 -1 -21 6 -12
10 -21 8 -46 -10 -16 -12 -30 -28 -30 -35 0 -8 -4 -17 -10 -20 -6 -4 -7 1 -4
12 6 15 4 15 -9 -2 -8 -11 -13 -23 -11 -27 3 -5 1 -8 -4 -8 -6 0 -12 -7 -15
-14 -4 -11 -1 -13 10 -9 11 5 10 0 -5 -15 -21 -21 -22 -30 -22 -223 0 -129 3
-198 10 -194 5 3 8 0 5 -7 -3 -7 4 -19 15 -25 22 -15 54 -5 105 33 31 24 80
94 54 79 -8 -5 -5 1 5 13 14 16 20 39 21 87 1 36 0 65 -2 65 -3 0 -18 -8 -33
-17 -26 -15 -29 -22 -32 -81 -2 -35 1 -66 6 -70 5 -3 6 1 1 8 -5 8 -4 11 2 7
16 -10 8 -50 -14 -64 -16 -11 -20 -11 -20 0 0 8 5 14 11 13 6 0 12 4 13 9 2 9
-36 10 -45 1 -9 -10 -8 -42 2 -56 9 -13 9 -13 -6 -2 -9 7 -15 21 -13 30 1 9
-7 30 -18 46 -12 16 -15 26 -9 22 10 -6 12 30 10 168 -2 97 0 176 3 176 4 0 6
7 5 16 -1 11 9 17 29 20 40 4 54 -10 48 -51 -5 -40 -2 -41 39 -17 28 16 30 20
26 69 -5 54 -26 90 -53 90 -8 0 -15 -4 -15 -9z m0 -32 c0 -2 -8 -10 -17 -17
-16 -13 -17 -12 -4 4 13 16 21 21 21 13z m50 0 c0 -2 -9 -6 -20 -9 -11 -3 -18
-1 -14 4 5 9 34 13 34 5z m-35 -46 c3 -5 1 -10 -4 -10 -6 0 -11 5 -11 10 0 6
2 10 4 10 3 0 8 -4 11 -10z m-118 -162 c-3 -8 -6 -5 -6 6 -1 11 2 17 5 13 3
-3 4 -12 1 -19z m150 -190 c-3 -8 -6 -5 -6 6 -1 11 2 17 5 13 3 -3 4 -12 1
-19z m-146 -145 c13 -16 12 -17 -3 -4 -17 13 -22 21 -14 21 2 0 10 -8 17 -17z"/>
<path d="M11172 13533 c-6 -3 -9 -10 -6 -15 4 -7 2 -8 -4 -4 -14 8 -74 -28
-64 -39 4 -5 2 -5 -5 -1 -18 10 -52 -15 -46 -33 4 -13 3 -13 -5 -2 -8 12 -15
11 -38 -6 -16 -11 -37 -23 -47 -26 -11 -4 -15 -12 -11 -18 4 -8 3 -9 -4 -5
-17 10 -75 -23 -68 -39 3 -8 0 -17 -6 -21 -6 -4 -8 -3 -4 4 3 6 2 13 -4 17 -5
3 -10 1 -10 -4 0 -6 -3 -10 -7 -9 -5 1 -21 -5 -36 -12 -20 -10 -24 -16 -15
-22 9 -6 6 -7 -9 -3 -12 3 -24 2 -27 -4 -3 -5 -26 -19 -51 -31 -25 -12 -42
-26 -39 -32 4 -6 1 -9 -7 -6 -8 3 -30 -5 -49 -17 -19 -12 -43 -24 -53 -28 -10
-4 -15 -11 -12 -17 3 -5 0 -7 -9 -4 -8 3 -24 -4 -35 -15 -12 -12 -23 -21 -26
-21 -3 0 -10 0 -16 0 -5 0 -7 -5 -4 -10 4 -6 12 -7 18 -4 7 4 9 3 4 -1 -10
-11 -48 -14 -41 -3 3 4 -16 -5 -43 -22 -26 -16 -58 -34 -70 -40 -13 -5 -23
-14 -23 -20 0 -6 -5 -8 -12 -4 -8 5 -9 1 -4 -12 6 -15 5 -16 -5 -7 -10 10 -15
9 -26 -5 -9 -10 -11 -11 -7 -2 9 17 -34 -8 -75 -44 -13 -11 -21 -16 -17 -9 3
6 -20 -4 -51 -23 -32 -19 -57 -39 -56 -44 1 -4 -5 -14 -15 -22 -15 -12 -16
-11 -3 5 14 18 5 22 -18 8 -7 -5 -11 -13 -8 -18 3 -5 0 -10 -8 -10 -8 0 -11 5
-7 11 3 6 -5 3 -18 -6 -14 -10 -44 -27 -67 -39 -23 -12 -39 -27 -36 -32 4 -6
0 -8 -11 -4 -10 4 -19 1 -22 -8 -4 -8 -12 -15 -20 -15 -22 0 -75 -36 -66 -45
4 -5 1 -5 -6 -1 -8 5 -21 1 -33 -10 -11 -10 -26 -19 -34 -20 -17 -3 -76 -43
-90 -62 -6 -7 -15 -12 -20 -11 -6 1 -18 -1 -28 -6 -14 -6 -15 -10 -5 -23 12
-14 10 -14 -12 -2 -22 12 -23 11 -13 -1 10 -12 8 -15 -7 -15 -10 0 -16 4 -14
8 8 12 -3 9 -18 -4 -8 -7 -38 -26 -68 -42 -30 -16 -60 -35 -67 -43 -6 -8 -13
-14 -15 -13 -11 5 -58 -22 -53 -30 3 -5 3 -10 -2 -11 -4 0 -19 -2 -31 -3 -26
-3 -44 -24 -34 -41 3 -5 -3 -3 -13 5 -15 12 -17 12 -10 1 6 -11 4 -13 -8 -8
-9 3 -26 -5 -43 -21 -15 -15 -24 -21 -20 -14 8 14 -102 -43 -119 -62 -6 -6
-15 -12 -20 -13 -23 -4 -124 -71 -117 -78 4 -5 2 -5 -5 -1 -7 4 -21 1 -32 -6
-16 -9 -19 -20 -16 -43 3 -18 2 -25 -3 -17 -5 7 -17 10 -28 6 -14 -4 -15 -3
-5 4 7 5 9 12 4 15 -4 3 -35 -13 -68 -35 -33 -22 -60 -39 -60 -38 0 1 -12 -4
-27 -11 -16 -7 -28 -16 -28 -21 0 -5 -4 -7 -8 -4 -5 3 -25 -6 -46 -20 -20 -14
-65 -40 -99 -59 -34 -18 -61 -38 -59 -45 1 -6 -2 -9 -7 -5 -10 6 -71 -21 -71
-31 0 -3 5 -2 12 2 7 4 8 3 4 -5 -4 -6 -11 -9 -16 -6 -11 7 -90 -36 -84 -47 3
-4 -2 -5 -10 -2 -8 3 -23 -3 -34 -13 -10 -10 -25 -19 -33 -21 -8 -2 -21 -10
-30 -18 -8 -8 -20 -14 -25 -14 -19 -1 -114 -66 -107 -74 5 -4 1 -7 -7 -6 -30
4 -42 0 -37 -14 4 -10 0 -14 -14 -11 -10 2 -19 0 -19 -6 0 -5 -6 -8 -12 -6 -7
1 -12 -4 -10 -11 1 -8 -3 -12 -10 -10 -7 3 -19 -2 -26 -11 -8 -9 -11 -10 -7
-3 5 10 1 10 -19 1 -14 -7 -23 -16 -20 -20 3 -5 -1 -9 -8 -9 -9 0 -9 -3 2 -10
9 -6 10 -10 3 -10 -6 0 -15 5 -18 10 -4 6 -25 0 -55 -17 -27 -15 -46 -31 -43
-37 3 -5 1 -6 -4 -3 -6 4 -23 -3 -39 -16 -16 -12 -31 -22 -34 -22 -3 0 -4 -3
-3 -7 2 -4 -4 -5 -12 -2 -8 4 -15 1 -15 -5 0 -6 -3 -10 -7 -9 -13 3 -93 -42
-93 -52 0 -6 -4 -9 -8 -7 -15 4 -81 -37 -85 -54 -3 -10 -3 -20 -1 -22 3 -2 4
-464 4 -1025 0 -930 1 -1021 16 -1015 13 5 13 8 2 15 -10 8 -10 9 2 5 8 -2 15
-9 15 -15 0 -5 3 -14 8 -18 4 -4 7 -2 7 4 0 7 6 11 13 9 6 -1 11 4 9 11 -1 8
2 11 7 8 5 -3 35 10 67 29 33 18 74 41 92 49 31 14 36 36 9 36 -8 0 -8 -3 1
-9 11 -6 10 -10 -4 -15 -9 -3 -19 -4 -22 -1 -3 3 0 5 7 5 7 0 10 4 6 9 -9 16
13 23 34 11 16 -8 24 -6 42 12 12 13 19 18 15 11 -5 -10 90 41 119 64 6 4 26
16 45 26 65 33 85 47 83 57 -2 5 4 7 12 4 8 -4 15 -1 15 5 0 6 8 11 18 11 23
1 54 25 44 35 -4 5 -2 5 5 1 13 -7 177 83 168 92 -2 3 -13 -1 -22 -9 -16 -13
-17 -12 -4 4 8 10 20 16 28 13 7 -3 24 0 38 6 21 9 23 14 12 27 -10 14 -10 14
5 3 14 -11 21 -11 41 3 14 9 28 23 31 32 4 9 13 13 22 9 9 -3 25 5 41 22 15
15 23 21 19 15 -5 -9 -2 -11 8 -7 9 3 13 11 9 17 -3 5 -1 7 4 4 12 -8 103 40
103 54 0 5 7 9 15 9 22 0 80 38 80 52 0 7 -6 16 -15 20 -11 6 -10 7 5 5 11 -2
19 -9 18 -15 -2 -7 2 -12 7 -12 6 0 10 4 10 10 0 5 3 9 8 8 18 -4 63 23 56 34
-4 6 -3 8 4 5 13 -9 44 2 37 13 -3 4 3 7 13 6 9 0 16 5 14 12 -1 8 2 11 7 8
14 -9 42 5 34 17 -3 6 -1 7 6 3 6 -4 32 6 58 23 26 17 50 31 55 31 5 0 7 4 4
9 -3 5 1 12 10 15 10 4 13 2 8 -6 -4 -7 6 -3 22 9 16 11 52 33 79 47 130 71
165 93 158 101 -5 4 -2 5 6 0 7 -4 16 -4 20 1 3 5 28 20 56 34 27 14 72 43
100 64 27 22 44 32 36 23 -7 -9 21 4 64 29 57 35 73 49 63 56 -9 6 -5 7 11 3
17 -5 21 -4 16 5 -4 7 -1 10 8 8 23 -5 148 64 143 79 -6 16 10 27 19 13 4 -6
11 -8 16 -4 5 3 6 10 3 16 -4 7 -2 8 4 4 12 -7 65 16 95 42 10 9 24 17 32 18
8 1 27 11 42 21 15 10 41 24 57 31 22 10 26 15 17 26 -9 11 -9 16 0 22 8 4 9
3 5 -5 -16 -25 46 -1 144 56 56 32 117 66 136 76 21 10 32 22 28 29 -4 7 -3 8
4 4 13 -8 73 24 67 35 -3 4 2 10 11 13 10 4 13 2 8 -7 -5 -9 -3 -8 7 1 12 11
12 14 -1 22 -8 5 -10 10 -5 10 6 0 15 -4 20 -9 6 -6 32 3 68 23 31 18 54 36
50 40 -4 4 0 4 10 0 11 -4 19 0 23 10 3 9 9 14 13 12 4 -3 20 4 37 15 16 11
44 27 61 35 18 9 30 20 27 25 -3 5 2 6 10 3 9 -3 16 -1 16 6 0 6 4 9 9 6 5 -3
12 1 15 10 3 9 11 12 18 8 10 -6 10 -5 1 7 -10 12 -8 15 7 15 10 0 16 -4 14
-8 -8 -12 68 33 94 56 13 12 25 20 28 19 11 -7 24 -1 49 25 16 15 25 20 20 12
-6 -9 5 -5 26 8 18 13 58 35 87 50 l52 26 0 1052 c0 579 -3 1055 -7 1057 -5 2
-14 2 -21 0z m-162 -123 c0 -5 -5 -10 -11 -10 -5 0 -7 5 -4 10 3 6 8 10 11 10
2 0 4 -4 4 -10z m93 -60 c-3 -11 1 -28 8 -37 9 -11 10 -14 2 -9 -13 7 -14
-337 -3 -1380 3 -323 2 -467 -5 -457 -6 8 -18 11 -28 7 -15 -5 -15 -9 -5 -23
11 -14 11 -14 -4 -3 -20 16 -63 -1 -55 -22 3 -7 -1 -13 -9 -13 -7 0 -11 4 -7
9 3 6 -9 2 -26 -6 -35 -19 -41 -31 -11 -23 11 3 22 1 25 -3 3 -5 -11 -7 -30
-5 -23 2 -33 -1 -28 -8 3 -6 1 -7 -5 -3 -14 8 -55 -18 -45 -28 4 -4 1 -5 -7
-2 -8 3 -28 -3 -45 -14 -16 -11 -25 -20 -20 -20 6 0 17 6 24 13 10 8 12 8 7 0
-3 -6 -20 -19 -37 -27 -29 -14 -30 -14 -18 1 13 15 12 15 -11 3 -14 -7 -30
-20 -37 -29 -7 -9 -13 -12 -13 -8 0 4 -9 3 -20 -3 -11 -6 -18 -15 -15 -20 3
-6 -1 -7 -9 -4 -9 3 -16 1 -16 -5 0 -10 14 -15 33 -12 5 1 5 -3 2 -9 -5 -8
-14 -7 -29 3 -20 13 -24 13 -35 -1 -6 -10 -9 -11 -6 -4 4 7 -10 1 -30 -12 -20
-14 -45 -28 -56 -31 -17 -6 -18 -9 -7 -23 11 -15 11 -15 -3 -4 -13 10 -24 8
-63 -14 -25 -14 -46 -30 -46 -35 0 -6 -4 -8 -8 -5 -5 3 -25 -6 -45 -19 -20
-14 -39 -25 -42 -25 -4 0 -21 -11 -39 -25 -18 -14 -36 -22 -41 -17 -5 4 -6 2
-2 -3 3 -6 -3 -17 -15 -24 -16 -10 -19 -10 -12 1 5 8 -2 6 -16 -4 -14 -10 -40
-25 -58 -33 -18 -8 -31 -19 -27 -25 3 -6 -4 -10 -17 -10 -27 -1 -61 -24 -50
-34 4 -5 0 -7 -8 -5 -20 4 -101 -38 -123 -65 -10 -11 -16 -15 -12 -8 5 10 1
10 -19 1 -14 -7 -23 -16 -20 -20 3 -5 -3 -9 -13 -9 -17 0 -58 -22 -129 -68
-10 -6 -29 -16 -41 -22 -13 -5 -23 -12 -23 -15 0 -4 5 -3 12 1 7 4 8 3 4 -4
-4 -6 -13 -9 -21 -5 -8 3 -15 -1 -15 -8 0 -7 -3 -10 -6 -6 -4 3 -31 -9 -60
-28 -30 -19 -57 -35 -59 -35 -10 0 -185 -102 -191 -111 -3 -5 -1 -17 5 -27 8
-15 5 -17 -15 -17 -13 1 -27 5 -31 9 -5 4 -3 7 2 6 21 -5 36 0 30 10 -3 5 -19
3 -40 -7 -19 -9 -32 -20 -29 -25 3 -4 -2 -5 -10 -2 -8 3 -24 -4 -36 -16 -18
-18 -20 -24 -9 -32 11 -8 11 -9 -1 -5 -8 2 -14 10 -12 17 2 9 -4 9 -20 -3 -13
-8 -22 -21 -20 -27 1 -6 -1 -9 -5 -7 -12 8 -75 -21 -69 -31 3 -5 -5 -8 -17 -8
-13 1 -21 -4 -19 -12 1 -8 -2 -11 -8 -7 -7 4 -23 -4 -37 -16 -15 -13 -23 -19
-19 -12 3 6 -19 -4 -50 -22 -32 -19 -66 -37 -76 -41 -10 -3 -18 -9 -18 -14 0
-4 -12 -11 -26 -14 -23 -6 -24 -9 -12 -24 11 -15 11 -16 -3 -4 -14 10 -23 9
-53 -9 -39 -23 -46 -32 -18 -23 14 5 14 4 2 -4 -8 -6 -18 -8 -23 -5 -5 3 -20
-6 -34 -18 -15 -13 -23 -17 -19 -9 4 8 -1 5 -12 -7 -11 -12 -22 -19 -26 -16
-3 3 -17 -6 -31 -21 -14 -15 -25 -22 -25 -15 0 8 -7 6 -22 -4 -13 -8 -22 -20
-21 -26 2 -6 -4 -8 -11 -5 -22 8 -118 -50 -105 -63 8 -8 7 -13 -2 -18 -7 -5
-10 -4 -6 2 4 6 0 13 -8 17 -8 3 -19 -2 -24 -12 -5 -9 -11 -16 -13 -14 -7 7
-38 -11 -33 -18 3 -5 0 -12 -6 -16 -8 -4 -9 -3 -5 4 10 17 5 15 -52 -16 -29
-16 -49 -32 -45 -35 3 -4 -4 -7 -16 -7 -12 0 -24 -6 -27 -14 -3 -8 -11 -13
-18 -10 -7 3 -19 -2 -26 -11 -7 -8 -18 -15 -26 -15 -7 0 -16 -5 -20 -12 -4 -6
-3 -8 4 -4 6 3 13 2 16 -2 3 -5 -5 -9 -17 -8 -19 2 -89 -30 -122 -54 -5 -4
-41 -25 -80 -46 -73 -39 -98 -58 -89 -67 3 -3 0 -8 -7 -13 -8 -5 -10 -3 -4 5
5 9 2 12 -11 9 -11 -2 -18 -10 -16 -17 1 -7 -2 -10 -7 -7 -11 7 -61 -14 -61
-26 0 -14 5 -23 12 -21 8 3 4 -25 -5 -32 -4 -3 -5 -2 -2 2 3 3 -2 14 -11 24
-15 17 -19 17 -45 3 -16 -8 -29 -17 -29 -20 0 -3 5 -2 12 2 7 4 8 3 4 -5 -4
-6 -12 -8 -18 -5 -5 4 -23 -3 -39 -15 -15 -11 -34 -21 -41 -21 -9 0 -9 -3 2
-10 13 -8 13 -10 -2 -11 -10 -1 -22 -3 -28 -4 -5 -1 -13 -3 -17 -4 -5 -1 -2
-5 5 -10 11 -7 11 -9 -1 -14 -15 -6 -18 15 -4 29 4 4 2 13 -5 21 -6 7 -8 16
-4 20 3 3 6 1 6 -6 0 -7 4 -10 8 -7 7 4 6 1568 -1 1786 -2 62 -1 66 27 83 15
10 25 21 22 25 -4 3 -11 0 -16 -8 -8 -12 -10 -13 -10 -1 0 11 -4 11 -18 -2
-16 -15 -18 -15 -18 2 0 15 8 17 48 15 27 -1 46 1 43 6 -3 4 3 7 13 6 9 0 16
4 15 11 -2 8 4 10 14 6 11 -4 14 -3 9 5 -4 7 -2 10 6 7 15 -5 55 22 45 31 -4
4 -15 1 -24 -7 -16 -12 -17 -12 -6 2 7 9 9 20 5 24 -4 5 5 1 21 -8 15 -10 27
-13 27 -7 0 5 4 9 9 7 12 -3 101 54 101 65 0 5 5 6 10 3 6 -3 10 -2 10 4 0 6
6 8 13 5 8 -3 20 2 27 11 7 8 18 15 26 15 7 0 17 8 23 18 5 9 12 16 15 15 12
-3 46 10 46 18 0 5 -8 6 -17 2 -12 -4 -10 1 7 16 21 19 22 22 5 16 -14 -4 -17
-3 -9 5 7 7 19 7 35 2 l24 -9 -23 -7 c-12 -4 -20 -12 -16 -17 4 -6 12 -5 22 5
10 8 49 31 87 51 39 21 73 42 77 48 3 6 13 12 21 13 25 3 87 50 79 59 -4 5 -2
5 5 1 16 -9 89 28 97 49 3 9 11 15 18 13 18 -3 78 30 78 43 0 6 4 8 9 4 12 -6
81 33 81 47 0 5 5 6 10 3 6 -3 10 -2 10 3 0 5 6 9 13 9 17 1 128 69 121 75 -2
3 9 8 27 12 22 4 30 10 26 21 -4 8 -1 17 5 21 7 4 8 3 4 -4 -4 -7 -1 -12 7
-12 19 0 101 46 117 65 7 8 16 12 21 9 5 -3 9 2 9 11 0 8 11 20 25 27 13 6 22
15 18 21 -4 6 -1 7 7 2 10 -6 9 -11 -5 -22 -42 -30 6 -10 54 22 28 19 54 36
58 38 5 1 7 6 5 10 -1 5 2 6 7 2 12 -7 150 69 168 91 6 9 15 16 20 16 28 2 54
20 49 34 -3 9 -2 12 5 9 17 -11 61 4 56 19 -3 7 1 13 9 13 7 0 10 -5 7 -11 -4
-6 1 -5 10 3 9 7 14 18 10 24 -4 6 0 8 9 4 9 -3 21 0 27 6 7 7 15 12 19 12 18
1 52 27 47 35 -3 6 1 7 9 4 19 -7 58 14 50 28 -4 6 -1 9 7 6 8 -3 26 1 42 9
24 12 31 22 29 43 0 3 8 6 18 6 10 0 16 -4 13 -9 -3 -5 13 2 36 15 37 21 39
24 24 36 -15 11 -13 11 16 6 28 -6 32 -4 29 11 -2 11 4 19 15 20 9 2 15 -1 11
-6 -3 -5 -10 -6 -16 -3 -7 4 -8 2 -4 -4 7 -11 36 -6 36 7 0 3 14 12 30 19 17
8 27 18 24 24 -3 5 0 8 7 7 24 -5 91 30 83 42 -4 8 -3 9 4 5 6 -4 21 -2 33 5
17 9 19 13 8 20 -11 7 -10 9 4 9 11 0 15 4 11 12 -4 7 -3 8 5 4 6 -4 8 -12 5
-18 -10 -15 30 7 45 26 8 9 17 13 22 11 4 -3 17 3 29 15 11 11 20 17 20 14 0
-3 22 7 49 23 27 15 47 31 44 37 -3 5 -1 6 6 2 6 -4 23 1 39 12 15 10 35 22
45 25 10 4 15 11 12 17 -4 6 1 7 11 3 12 -4 15 -3 10 5 -4 8 -2 10 8 6 9 -3
24 5 37 20 13 15 29 24 36 22 7 -3 13 -1 13 4 0 6 7 10 15 10 8 0 15 5 15 11
0 5 4 8 9 5 16 -11 109 73 96 86 -3 3 2 5 10 5 19 0 19 -2 -1 -21 -27 -28 -2
-18 83 32 46 27 79 53 75 57 -4 5 -1 5 5 1 16 -9 56 17 45 29 -4 5 -1 5 5 1
15 -8 56 12 48 24 -3 5 0 12 6 16 8 4 9 3 5 -4 -14 -23 34 -3 69 29 11 10 25
19 30 19 6 1 9 6 8 11 -2 4 5 5 14 2 12 -5 14 -3 8 7 -6 10 -4 12 8 7 10 -3
17 -2 17 3 0 6 -5 10 -12 10 -6 0 -8 3 -5 6 4 4 13 2 21 -5 11 -9 20 -7 42 13
32 27 45 26 37 -4z m-253 -65 c0 0 -9 -8 -19 -17 -18 -16 -20 -15 -18 1 0 9 9
17 19 17 10 0 18 -1 18 -1z m-135 -65 c-3 -5 -12 -10 -18 -10 -7 0 -6 4 3 10
19 12 23 12 15 0z m25 -44 c0 -2 -9 -6 -20 -9 -11 -3 -18 -1 -14 4 5 9 34 13
34 5z m-52 -31 c-3 -3 -9 2 -12 12 -6 14 -5 15 5 6 7 -7 10 -15 7 -18z m-25 2
c3 -8 0 -14 -7 -14 -7 0 -13 6 -13 14 0 7 4 13 8 13 4 0 9 -6 12 -13z m-231
-82 c0 -5 -5 -10 -11 -11 -8 -2 -7 -1 0 3 8 4 7 8 -2 15 -11 8 -11 9 -1 6 8
-2 14 -8 14 -13z m-32 -5 c0 -5 -2 -10 -4 -10 -3 0 -8 5 -11 10 -3 6 -1 10 4
10 6 0 11 -4 11 -10z m38 -45 c-3 -3 -9 2 -12 12 -6 14 -5 15 5 6 7 -7 10 -15
7 -18z m-228 -79 c0 -2 -7 -7 -16 -10 -8 -3 -12 -2 -9 4 6 10 25 14 25 6z m60
-11 c0 -2 -6 -5 -13 -8 -8 -3 -14 1 -14 8 0 7 6 11 14 8 7 -3 13 -6 13 -8z
m-85 -65 c3 -5 1 -10 -4 -10 -6 0 -11 5 -11 10 0 6 2 10 4 10 3 0 8 -4 11 -10z
m-65 -20 c-7 -4 -9 -13 -6 -19 4 -6 2 -11 -3 -11 -6 0 -11 5 -11 10 0 6 -5 10
-11 10 -5 0 -7 -5 -3 -12 4 -7 3 -8 -5 -4 -14 9 -5 26 15 26 8 0 12 4 9 10 -3
6 1 7 10 3 12 -4 13 -8 5 -13z m-475 -220 c-3 -5 -12 -10 -18 -10 -7 0 -6 4 3
10 19 12 23 12 15 0z m-5 -34 c0 -2 -11 -6 -25 -8 -13 -3 -22 -1 -19 3 5 9 44
13 44 5z m-29 -39 c-10 -9 -11 -8 -5 6 3 10 9 15 12 12 3 -3 0 -11 -7 -18z
m-16 -16 c7 -12 -12 -24 -25 -16 -11 7 -4 25 10 25 5 0 11 -4 15 -9z m-555
-251 c-8 -5 -19 -10 -25 -10 -5 0 -3 5 5 10 8 5 20 10 25 10 6 0 3 -5 -5 -10z
m133 -11 c-8 -8 -13 -7 -18 2 -5 8 -4 10 3 5 7 -4 12 -2 12 5 0 7 3 9 7 6 4
-4 2 -12 -4 -18z m-29 -5 c3 -8 2 -12 -4 -9 -6 3 -10 10 -10 16 0 14 7 11 14
-7z m-252 -71 c-6 -2 -10 -9 -7 -14 4 -5 -1 -6 -10 -2 -13 5 -14 7 -3 14 7 5
18 8 23 8 6 0 4 -3 -3 -6z m-247 -223 c-3 -5 -12 -10 -18 -10 -7 0 -6 4 3 10
19 12 23 12 15 0z m-168 -76 c-3 -3 -12 -4 -19 -1 -8 3 -5 6 6 6 11 1 17 -2
13 -5z m23 -14 c-8 -5 -19 -10 -25 -10 -5 0 -3 5 5 10 8 5 20 10 25 10 6 0 3
-5 -5 -10z m-140 -20 c-12 -8 -12 -10 -1 -10 8 0 12 -2 9 -5 -3 -3 -13 -2 -22
1 -14 5 -15 9 -4 15 7 5 18 9 23 9 6 0 3 -5 -5 -10z m-123 -45 c0 -8 -4 -12
-9 -9 -5 3 -6 10 -3 15 9 13 12 11 12 -6z m-197 -149 c0 -2 -7 -7 -16 -10 -8
-3 -12 -2 -9 4 6 10 25 14 25 6z m60 -6 c8 -5 11 -10 5 -10 -5 0 -17 5 -25 10
-8 5 -10 10 -5 10 6 0 17 -5 25 -10z m-273 -155 c0 -8 -4 -12 -9 -9 -5 3 -6
10 -3 15 9 13 12 11 12 -6z m3300 -90 c0 -8 -4 -12 -9 -9 -5 3 -6 10 -3 15 9
13 12 11 12 -6z m-3652 -75 c-3 -5 -12 -10 -18 -10 -7 0 -6 4 3 10 19 12 23
12 15 0z m3405 -56 c0 -8 -19 -13 -24 -6 -3 5 1 9 9 9 8 0 15 -2 15 -3z m-190
-128 c0 -3 -4 -8 -10 -11 -5 -3 -10 -1 -10 4 0 6 5 11 10 11 6 0 10 -2 10 -4z
m-246 -102 c3 -8 2 -12 -4 -9 -6 3 -10 10 -10 16 0 14 7 11 14 -7z m-109 -112
c-3 -3 -11 0 -18 7 -9 10 -8 11 6 5 10 -3 15 -9 12 -12z m-125 -76 c0 -2 -7
-7 -16 -10 -8 -3 -12 -2 -9 4 6 10 25 14 25 6z m-175 -25 c3 -5 0 -13 -6 -17
-8 -4 -9 -3 -5 4 10 16 -6 15 -24 0 -12 -11 -12 -10 -1 5 15 19 27 22 36 8z
m120 -1 c-3 -5 -12 -10 -18 -10 -7 0 -6 4 3 10 19 12 23 12 15 0z m-185 -24
c0 -2 -7 -7 -16 -10 -8 -3 -12 -2 -9 4 6 10 25 14 25 6z m70 -50 c0 -2 -7 -7
-16 -10 -8 -3 -12 -2 -9 4 6 10 25 14 25 6z m-160 -90 c0 -2 -7 -7 -16 -10 -8
-3 -12 -2 -9 4 6 10 25 14 25 6z m-179 -83 c-10 -4 -10 -7 -1 -13 8 -5 6 -9
-6 -14 -10 -4 -15 -4 -11 0 4 4 3 12 -3 18 -6 8 -2 12 13 13 12 0 16 -1 8 -4z
m-131 -19 c0 -8 -19 -13 -24 -6 -3 5 1 9 9 9 8 0 15 -2 15 -3z m-85 -41 c-19
-15 -19 -15 10 -9 25 5 27 4 12 -5 -10 -6 -26 -8 -35 -4 -15 6 -15 8 2 21 27
19 36 17 11 -3z m65 -48 c0 -2 -6 -5 -13 -8 -8 -3 -14 1 -14 8 0 7 6 11 14 8
7 -3 13 -6 13 -8z m-203 -30 c0 -8 -4 -12 -9 -9 -5 3 -6 10 -3 15 9 13 12 11
12 -6z m-137 -165 c-8 -5 -19 -10 -25 -10 -5 0 -3 5 5 10 8 5 20 10 25 10 6 0
3 -5 -5 -10z m-325 -100 c-3 -5 -12 -10 -18 -10 -7 0 -6 4 3 10 19 12 23 12
15 0z m35 -57 c0 -1 -8 -7 -18 -12 -13 -7 -19 -6 -19 2 0 7 9 13 19 13 10 0
18 -1 18 -3z m-124 -38 c-1 -8 -5 -17 -8 -21 -5 -4 -4 16 1 34 3 9 9 -1 7 -13z
m-60 -43 c-3 -3 0 -12 6 -21 10 -13 10 -14 -2 -4 -16 15 -23 46 -8 37 5 -3 7
-9 4 -12z m-101 -21 c3 -6 -5 -15 -17 -21 -21 -10 -21 -10 -6 3 10 8 15 17 11
20 -3 4 -4 7 0 7 3 0 8 -4 12 -9z m-105 -51 c0 -5 -2 -10 -4 -10 -3 0 -8 5
-11 10 -3 6 -1 10 4 10 6 0 11 -4 11 -10z m90 -24 c0 -2 -7 -7 -16 -10 -8 -3
-12 -2 -9 4 6 10 25 14 25 6z m-94 -52 c1 -9 0 -13 -4 -10 -3 4 -7 14 -8 22
-1 9 0 13 4 10 3 -4 7 -14 8 -22z m-301 -94 c-3 -5 -12 -10 -18 -10 -7 0 -6 4
3 10 19 12 23 12 15 0z m-40 -68 c-3 -3 -11 0 -18 7 -9 10 -8 11 6 5 10 -3 15
-9 12 -12z m-130 -50 c-3 -3 -11 0 -18 7 -9 10 -8 11 6 5 10 -3 15 -9 12 -12z
m-87 -45 c14 4 14 3 2 -5 -16 -12 -30 -7 -29 11 0 9 2 9 5 0 3 -7 13 -9 22 -6z
m42 -1 c0 -3 -4 -8 -10 -11 -5 -3 -10 -1 -10 4 0 6 5 11 10 11 6 0 10 -2 10
-4z m-106 -34 c3 -5 -1 -9 -9 -9 -8 0 -12 4 -9 9 3 4 7 8 9 8 2 0 6 -4 9 -8z
m111 -1 c3 -5 0 -13 -6 -17 -8 -5 -9 -3 -4 6 6 10 4 12 -9 7 -10 -4 -15 -3
-11 3 8 13 22 13 30 1z m-135 -41 c0 -5 -5 -10 -11 -10 -5 0 -7 5 -4 10 3 6 8
10 11 10 2 0 4 -4 4 -10z"/>
<path d="M13020 12281 c-253 -56 -435 -154 -595 -322 -64 -67 -94 -110 -127
-175 -39 -79 -43 -94 -43 -163 0 -125 56 -216 163 -263 49 -22 114 -19 230 9
35 8 65 13 66 12 2 -2 31 -86 66 -187 l63 -182 31 20 c31 19 31 20 28 92 -1
40 1 79 7 87 17 25 58 3 103 -56 52 -68 254 -294 309 -345 87 -80 239 -96 416
-43 47 14 57 23 93 75 101 149 144 310 143 540 -1 310 -86 554 -247 715 -84
83 -171 136 -281 172 -110 35 -300 42 -425 14z"/>
<path d="M11763 11443 c-15 -16 -23 -22 -18 -14 6 10 4 12 -6 6 -73 -45 -97
-63 -91 -70 4 -5 2 -5 -5 -1 -15 8 -73 -20 -73 -35 0 -8 4 -8 13 0 10 8 14 7
14 -2 0 -8 -5 -14 -11 -14 -6 0 -20 -4 -31 -8 -16 -5 -17 -5 -5 4 8 5 12 13 8
16 -3 3 -14 -2 -24 -12 -9 -10 -20 -18 -23 -18 -3 0 -5 -4 -3 -8 1 -5 -2 -6
-8 -2 -6 4 -22 0 -35 -9 -24 -16 -29 -35 -12 -47 5 -3 2 -9 -6 -12 -11 -4 -15
0 -12 14 2 11 -2 19 -10 19 -8 0 -12 -6 -9 -14 3 -8 0 -17 -6 -21 -6 -3 -10
-3 -9 2 4 23 -3 25 -17 5 -8 -12 -21 -21 -27 -20 -17 4 -77 -34 -71 -44 3 -4
-3 -5 -12 -1 -14 5 -16 3 -10 -13 5 -15 4 -16 -5 -7 -12 12 -39 7 -39 -9 0 -5
5 -6 10 -3 6 3 10 2 10 -4 0 -6 23 -24 51 -40 43 -24 56 -28 75 -19 23 11 23
12 8 30 -10 10 -15 18 -13 19 28 6 51 4 56 -4 4 -6 1 -7 -7 -2 -9 5 -11 4 -6
-3 5 -8 1 -10 -11 -6 -15 5 -15 4 -3 -5 10 -7 19 -6 30 4 8 7 19 14 23 13 5 0
12 4 15 8 4 4 1 4 -7 -1 -10 -5 -12 -4 -7 4 4 6 11 9 16 6 13 -8 41 6 34 17
-4 6 -1 9 7 6 14 -5 151 77 157 93 2 5 13 14 25 20 21 10 21 10 3 -5 -24 -19
-8 -21 16 -2 10 7 15 16 11 20 -4 4 0 4 9 1 10 -4 24 2 36 15 11 12 26 22 33
24 22 3 40 17 34 26 -3 4 3 6 13 3 11 -2 27 4 37 14 10 10 21 17 24 17 3 -1 5
2 4 7 -2 4 4 6 12 3 8 -4 15 -2 15 2 0 13 -51 35 -63 27 -6 -3 -7 -1 -4 4 6 9
-52 53 -69 53 -3 0 -17 -12 -31 -27z m-133 -213 c0 -4 -7 -11 -16 -14 -13 -5
-14 -4 -6 7 7 8 8 18 4 22 -4 5 -1 5 6 1 6 -4 12 -11 12 -16z m-150 -50 c-8
-5 -19 -10 -25 -10 -5 0 -3 5 5 10 8 5 20 10 25 10 6 0 3 -5 -5 -10z m-156
-96 c3 -8 2 -12 -4 -9 -6 3 -10 10 -10 16 0 14 7 11 14 -7z"/>
<path d="M11985 11150 c-6 -10 15 -50 28 -50 4 0 5 -6 1 -12 -5 -8 -1 -8 12 2
10 8 16 10 12 6 -4 -5 0 -14 8 -21 18 -13 18 -13 -41 -17 -14 -1 -25 -6 -25
-10 0 -5 6 -8 13 -7 28 3 37 -2 37 -22 0 -11 4 -18 9 -14 6 3 8 14 6 25 -4 22
24 35 54 25 11 -3 25 1 34 9 8 8 18 12 22 8 5 -4 5 -1 1 6 -5 8 -1 12 12 12
10 0 27 9 37 20 10 11 13 20 7 20 -7 0 -12 -4 -12 -9 0 -5 -7 -11 -15 -15 -12
-4 -14 0 -9 18 4 19 1 24 -20 28 -37 7 -53 -15 -27 -41 18 -18 18 -20 3 -34
-22 -18 -84 -4 -76 18 3 7 13 16 22 18 12 3 10 5 -5 6 -12 0 -27 10 -33 21
-11 21 -44 27 -55 10z m53 -20 c10 -17 10 -20 -6 -20 -9 0 -23 9 -30 20 -10
17 -10 20 6 20 9 0 23 -9 30 -20z m125 -11 c-4 -15 -8 -17 -19 -8 -21 17 -17
38 5 32 13 -3 17 -11 14 -24z"/>
<path d="M11961 11055 c-8 -36 -8 -45 -1 -40 8 5 21 -31 13 -39 -8 -8 -68 13
-79 29 -6 8 -14 12 -17 8 -4 -3 -7 1 -7 11 0 9 -4 14 -10 11 -5 -3 -10 -2 -10
3 0 14 -48 11 -60 -3 -6 -7 -9 -19 -8 -26 2 -9 -5 -13 -22 -11 -28 3 -70 -22
-57 -34 4 -4 13 1 20 10 10 13 20 16 35 12 12 -4 20 -12 16 -17 -3 -5 -2 -8 3
-7 4 2 20 -10 36 -25 15 -16 31 -25 36 -22 10 6 -34 55 -49 55 -4 0 -7 8 -5
18 2 9 4 24 4 32 1 15 41 23 41 9 0 -12 85 -63 108 -65 12 0 33 9 47 22 l24
22 -24 6 c-14 4 -25 15 -28 29 -2 12 -5 18 -6 12z"/>
<path d="M5750 10670 c0 -3 -6 -7 -12 -7 -19 0 -88 -43 -88 -55 0 -5 -4 -7 -9
-3 -6 3 -20 -5 -32 -17 -12 -13 -18 -16 -14 -8 8 13 7 13 -8 1 -15 -12 -17
-45 -16 -350 0 -185 4 -345 9 -356 5 -12 9 -14 9 -6 1 8 4 11 7 8 12 -12 46
14 40 30 -5 12 -4 13 7 5 8 -7 17 -9 20 -5 12 11 8 258 -4 270 -13 13 -4 33
14 32 9 0 9 -2 0 -6 -7 -2 -13 -9 -13 -14 0 -13 56 16 103 53 29 23 36 35 32
52 -4 14 -3 17 3 8 7 -10 15 -3 31 28 12 23 19 46 16 51 -4 5 -1 9 4 9 11 0
10 214 0 252 -6 22 -19 35 -19 20 0 -7 -4 -12 -10 -12 -5 0 -6 8 -3 18 6 15 5
16 -12 2 -10 -8 -16 -10 -12 -4 4 7 -2 12 -18 12 -14 0 -25 -4 -25 -8z m-3
-36 c-9 -9 -28 6 -21 18 4 6 10 6 17 -1 6 -6 8 -13 4 -17z m-74 -41 c-5 -12
-3 -14 7 -8 9 5 11 4 6 -3 -12 -20 -26 -13 -24 12 1 14 6 22 10 20 4 -3 4 -12
1 -21z m-33 -3 c0 -5 -5 -10 -11 -10 -5 0 -7 5 -4 10 3 6 8 10 11 10 2 0 4 -4
4 -10z m122 -32 c20 -32 9 -201 -14 -225 -15 -14 -15 -18 -1 -42 l15 -26 -19
24 c-19 23 -21 23 -46 6 -15 -9 -27 -13 -28 -9 0 5 0 58 1 118 1 60 -3 112 -8
115 -5 3 0 15 11 26 11 11 17 14 13 8 -5 -9 -2 -11 8 -7 9 3 13 10 10 15 -3 5
2 6 10 3 9 -3 16 -1 16 5 0 18 17 12 32 -11z m-122 -42 c0 -3 -4 -8 -10 -11
-5 -3 -10 -1 -10 4 0 6 5 11 10 11 6 0 10 -2 10 -4z m-3 -318 c-3 -8 -6 -5 -6
6 -1 11 2 17 5 13 3 -3 4 -12 1 -19z"/>
<path d="M5490 10520 c0 -5 -6 -9 -12 -7 -7 1 -12 -3 -11 -10 2 -7 -3 -10 -10
-7 -7 2 -23 -4 -35 -14 -21 -18 -22 -27 -22 -170 l0 -152 -27 -17 c-34 -21
-44 -34 -36 -47 3 -5 1 -6 -6 -2 -6 4 -8 12 -5 18 4 6 -3 5 -16 -2 -12 -6 -23
-10 -25 -8 -2 2 -5 70 -6 150 l-2 146 -33 -16 c-19 -9 -34 -20 -34 -24 0 -5
-5 -6 -10 -3 -7 4 -10 -115 -9 -362 0 -301 3 -365 13 -351 7 10 16 15 19 11 4
-3 7 2 8 13 0 10 3 13 6 7 3 -9 10 -10 24 -3 18 10 19 23 19 171 l0 159 25 12
c13 6 22 15 19 20 -3 5 -12 4 -20 -3 -8 -6 -17 -9 -21 -5 -3 3 -2 6 4 6 6 0 9
8 6 19 -3 10 0 22 5 25 6 4 8 -3 4 -16 -3 -12 -1 -19 4 -15 6 3 16 2 24 -3 16
-10 53 6 45 19 -3 5 2 12 11 15 10 4 13 2 8 -6 -5 -8 -2 -9 11 -4 14 5 15 3 7
-6 -11 -14 -17 -271 -7 -288 3 -5 24 1 48 14 l42 24 2 361 c1 199 0 361 -2
361 -3 0 -5 -4 -5 -10z m-222 -165 c-3 -3 -9 2 -12 12 -6 14 -5 15 5 6 7 -7
10 -15 7 -18z m112 -229 c0 -2 -7 -7 -16 -10 -8 -3 -12 -2 -9 4 6 10 25 14 25
6z m-35 -56 c-3 -5 -12 -10 -18 -10 -7 0 -6 4 3 10 19 12 23 12 15 0z"/>
<path d="M4979 10227 c-36 -21 -54 -37 -52 -47 4 -12 3 -13 -5 -1 -8 11 -15
10 -41 -5 l-31 -19 0 -356 1 -356 44 21 45 21 0 143 0 142 26 10 c35 14 91 58
114 91 19 26 11 34 -17 16 -6 -4 -15 -3 -18 3 -4 6 -1 9 7 8 7 -2 12 3 10 11
-2 11 0 12 10 3 9 -7 19 -8 28 -2 8 6 12 10 7 10 -4 0 -1 10 8 23 18 28 32
211 17 221 -6 3 -8 15 -5 26 3 11 -2 31 -11 45 -23 35 -67 32 -137 -8z m16
-47 c3 -5 2 -10 -4 -10 -5 0 -13 5 -16 10 -3 6 -2 10 4 10 5 0 13 -4 16 -10z
m-38 -37 c0 -9 -4 -10 -10 -4 -7 7 -17 1 -29 -15 -11 -13 -25 -24 -31 -24 -6
0 -1 7 11 16 16 11 20 19 13 27 -7 9 -2 12 18 12 16 1 28 -5 28 -12z m75 2 c4
-5 8 -55 8 -111 0 -87 -3 -103 -20 -122 -12 -12 -25 -22 -31 -22 -6 0 -7 -4
-4 -10 3 -5 -3 -10 -14 -10 -13 0 -21 -7 -21 -17 0 -9 -3 -13 -7 -10 -3 4 -5
66 -4 138 2 128 3 131 28 154 28 23 53 27 65 10z m1 -270 c4 -8 3 -16 -1 -19
-4 -3 -9 4 -9 15 -2 23 3 25 10 4z m-27 -57 c4 -7 4 -10 -1 -6 -4 4 -14 0 -22
-10 -13 -15 -13 -15 -3 6 12 25 16 27 26 10z"/>
<path d="M13120 9599 c-46 -18 -120 -71 -120 -85 0 -8 -4 -14 -10 -14 -14 0
-141 -161 -135 -171 3 -4 -7 -4 -22 1 -15 5 -149 27 -296 50 -268 41 -268 41
-304 23 -27 -14 -45 -36 -67 -79 -54 -107 -47 -274 13 -300 9 -4 86 -23 170
-44 85 -20 156 -41 158 -47 2 -5 -9 -23 -24 -39 -16 -16 -42 -47 -58 -69 -17
-21 -37 -46 -45 -55 -51 -53 -125 -155 -122 -169 2 -11 0 -12 -5 -4 -7 9 -16
7 -38 -8 -17 -11 -45 -27 -63 -36 -25 -12 -30 -18 -20 -25 9 -7 8 -8 -6 -4
-10 4 -24 2 -31 -4 -22 -18 -106 -60 -121 -60 -7 0 -14 -4 -14 -10 0 -5 -7 -7
-16 -3 -21 8 -883 -28 -912 -39 l-23 -8 2 -265 c1 -262 1 -265 23 -270 11 -2
233 -12 491 -21 259 -9 471 -17 472 -18 2 -2 -6 -21 -17 -44 -11 -23 -27 -88
-35 -143 -7 -56 -16 -103 -18 -105 -2 -2 -80 7 -173 22 -272 41 -411 33 -554
-32 -118 -54 -132 -78 -165 -286 -30 -188 -94 -338 -206 -487 -35 -46 -67 -89
-71 -95 -5 -6 -53 -222 -109 -481 -55 -258 -140 -654 -189 -880 -49 -225 -95
-441 -103 -480 l-14 -70 -34 3 c-29 3 -42 -4 -87 -46 -28 -27 -52 -53 -52 -58
0 -5 10 2 21 16 11 14 17 18 13 10 -4 -8 -16 -25 -26 -36 -29 -32 -51 -128
-43 -186 8 -60 -4 -79 -43 -69 -26 7 -27 11 -33 82 -3 41 -2 81 2 89 11 21 34
113 31 123 -1 5 1 7 5 4 5 -2 22 18 40 45 17 26 26 45 20 41 -7 -4 -15 -8 -20
-8 -4 0 -27 -19 -50 -41 -46 -44 -82 -107 -72 -124 3 -6 1 -10 -6 -10 -8 0 -7
-5 2 -17 10 -11 10 -14 2 -9 -13 7 -13 7 -17 -109 -1 -44 -4 -50 -25 -53 -13
-2 -28 1 -35 8 -11 11 -12 14 -14 58 -2 16 -6 21 -14 16 -10 -6 -10 -5 -1 7
10 13 30 123 25 142 -1 4 3 7 8 7 5 0 9 3 8 8 -2 12 14 45 39 78 12 17 20 34
15 39 -4 5 -2 5 5 1 7 -4 17 2 23 14 7 13 7 20 0 20 -5 0 -10 -5 -10 -11 0 -5
-4 -8 -8 -5 -11 7 -52 -22 -52 -36 0 -6 7 -5 18 3 15 13 16 12 3 -4 -10 -12
-17 -15 -24 -8 -12 12 -60 -46 -51 -60 3 -5 0 -9 -5 -9 -6 0 -10 -3 -9 -7 1
-5 -4 -19 -12 -33 -10 -17 -15 -56 -15 -120 l0 -95 -36 0 c-24 0 -36 5 -38 15
-6 42 2 197 11 213 5 10 7 21 4 24 -3 3 1 12 9 20 8 8 15 20 15 26 0 8 -3 8
-9 -1 -7 -11 -9 -11 -14 1 -4 11 0 15 13 12 12 -2 25 6 35 22 10 14 13 23 8
20 -5 -3 -10 4 -10 16 -2 17 0 19 7 7 8 -13 12 -13 27 3 14 15 15 18 3 16 -8
-2 -37 1 -65 5 -27 4 -108 2 -180 -4 -71 -6 -138 -11 -147 -11 -10 0 -18 -4
-18 -10 0 -5 -10 -8 -22 -6 -16 1 -22 -3 -20 -13 3 -12 1 -13 -9 -2 -16 15
-33 16 -23 0 5 -8 2 -9 -9 -5 -9 3 -19 2 -22 -4 -4 -5 -11 -7 -16 -3 -6 3 -10
0 -8 -7 1 -8 1 -21 0 -29 -1 -12 -4 -11 -12 3 -10 17 -12 17 -41 0 -65 -38
-83 -89 -54 -157 18 -43 155 -179 173 -172 8 3 11 1 8 -4 -3 -6 2 -13 12 -17
10 -4 24 -13 32 -20 7 -8 22 -11 35 -8 15 5 17 4 7 -3 -7 -5 -9 -12 -5 -15 61
-36 143 -75 149 -69 3 4 12 0 18 -9 16 -21 89 -57 105 -52 6 3 12 -1 12 -7 0
-7 7 -10 16 -6 8 3 12 2 9 -4 -3 -6 1 -10 9 -10 9 0 16 4 16 8 0 12 -23 39
-40 46 -8 3 -5 4 8 2 19 -4 22 -1 17 12 -5 13 -3 14 6 5 15 -15 39 -6 39 16 0
13 2 14 9 2 7 -10 13 -12 23 -5 7 6 32 16 55 24 23 7 40 17 36 23 -3 5 3 6 17
2 14 -4 20 -3 16 3 -3 5 0 10 7 9 34 -1 47 5 48 21 0 9 3 12 5 5 4 -9 18 -7
55 7 34 14 56 17 71 11 13 -5 43 -7 68 -6 34 2 39 1 20 -5 -14 -4 -18 -9 -10
-9 12 -1 12 -4 -2 -15 -10 -7 -14 -17 -10 -21 4 -5 1 -5 -6 -1 -16 10 -54 -3
-46 -15 3 -6 0 -9 -7 -8 -18 4 -89 -20 -89 -30 0 -4 -9 -7 -21 -8 -12 -1 -26
-9 -33 -18 -6 -9 -16 -15 -21 -14 -15 5 -85 -21 -85 -31 0 -5 5 -12 12 -16 7
-5 8 -3 3 6 -5 9 -4 11 4 6 9 -6 9 -11 0 -22 -9 -11 -9 -17 1 -29 14 -17 35
-21 25 -5 -3 6 -2 10 3 10 6 0 12 -7 16 -15 6 -17 26 -20 26 -4 0 5 -5 7 -11
3 -7 -4 -10 -1 -7 7 3 8 2 21 -3 30 -6 13 0 19 32 28 22 7 37 16 34 20 -3 5 2
12 11 15 24 9 31 7 14 -5 -12 -9 -12 -10 3 -5 10 3 23 6 28 6 6 0 8 4 5 9 -3
5 0 8 7 8 20 -2 97 26 97 35 0 4 9 8 20 8 11 0 20 4 20 9 0 6 8 10 18 11 102
6 151 4 170 -6 21 -10 18 -13 -42 -40 -35 -16 -62 -32 -60 -36 3 -4 -2 -5 -10
-2 -9 3 -16 1 -16 -5 0 -6 5 -11 12 -11 6 0 8 -3 5 -6 -4 -4 -13 -2 -21 5 -11
9 -26 6 -72 -16 -33 -15 -60 -31 -62 -35 -2 -4 -9 -5 -15 -3 -25 10 -38 -10
-27 -40 9 -24 14 -27 41 -21 17 3 28 2 24 -3 -6 -11 117 -25 222 -25 40 -1 73
-4 73 -8 0 -11 140 -9 227 2 156 20 265 121 289 268 3 22 1 77 -5 120 l-12 79
36 59 c19 32 40 74 45 94 5 19 50 197 100 394 76 301 94 362 113 375 12 9 26
16 32 16 12 0 105 35 120 45 36 24 139 51 168 44 28 -6 49 -10 80 -13 20 -2 3
-21 -28 -31 -21 -7 -32 -16 -29 -22 4 -6 2 -8 -4 -4 -11 6 -84 -23 -90 -36 -2
-4 -10 -4 -19 -1 -11 4 -14 3 -9 -6 5 -8 3 -11 -6 -9 -17 4 -138 -50 -138 -62
0 -21 14 -40 29 -40 14 0 14 -2 1 -11 -12 -9 -11 -10 7 -6 12 3 24 0 26 -6 2
-6 9 -7 16 -2 10 6 8 11 -10 21 -13 7 -18 13 -11 14 7 0 11 4 8 9 -3 5 9 14
27 21 17 7 46 19 62 26 17 7 66 27 110 44 44 17 96 38 116 47 33 13 52 13 122
-3 4 -1 13 -2 21 -3 8 0 17 -8 20 -17 3 -8 2 -13 -3 -10 -13 8 -62 -19 -53
-29 4 -5 1 -5 -6 -1 -13 8 -92 -23 -92 -36 0 -4 -6 -5 -13 -2 -8 3 -20 -2 -27
-10 -7 -9 -16 -13 -21 -10 -6 3 -26 -4 -45 -15 -19 -12 -41 -21 -49 -21 -27 0
-28 -59 -1 -61 6 0 20 -2 31 -4 150 -24 321 -37 445 -34 141 4 147 5 213 37
110 54 177 160 177 278 0 24 -10 90 -21 146 -12 57 -21 113 -21 125 0 18 -43
47 -252 169 -402 235 -438 256 -441 252 -7 -7 -25 -163 -25 -218 0 -54 -2 -58
-25 -64 -15 -4 -30 -17 -35 -31 -5 -14 -12 -25 -15 -25 -4 0 -3 5 1 12 4 7 3
8 -4 4 -7 -4 -12 -14 -12 -23 0 -9 -3 -14 -6 -10 -4 3 -12 1 -19 -6 -16 -16
-39 -61 -28 -54 5 3 9 -3 9 -13 0 -13 -4 -16 -12 -9 -9 7 -15 -7 -22 -51 -6
-33 -9 -66 -7 -73 7 -19 13 -88 7 -82 -3 3 -13 -2 -23 -11 -11 -10 -19 -12
-24 -4 -3 5 -10 8 -14 6 -9 -6 -14 26 -15 99 -1 80 7 126 33 175 13 25 16 40
9 40 -6 0 -8 3 -4 8 4 4 12 7 17 7 5 0 9 4 9 8 -1 4 9 17 22 27 23 19 23 19 1
15 -28 -5 -74 -45 -66 -58 3 -6 1 -7 -5 -3 -13 8 -35 -28 -24 -39 4 -5 2 -5
-4 -2 -14 8 -27 -20 -17 -35 3 -6 1 -8 -4 -5 -6 4 -14 0 -17 -9 -3 -8 -2 -12
4 -9 6 3 7 -1 4 -9 -3 -9 -10 -16 -16 -16 -5 0 -8 -38 -7 -87 1 -58 -2 -88
-10 -91 -6 -2 -9 -7 -6 -11 2 -5 -8 -6 -23 -4 -22 4 -24 2 -12 -7 13 -10 13
-11 0 -7 -8 2 -16 9 -16 15 -1 7 -3 15 -4 20 -9 30 50 290 76 330 8 12 11 22
8 22 -4 0 4 10 17 21 l24 21 -24 -7 c-18 -5 -23 -4 -19 6 3 8 47 183 98 389
88 350 96 377 127 411 35 39 92 60 137 52 26 -5 26 -6 20 -71 l-7 -66 34 21
c19 11 50 29 69 40 l35 20 809 -323 c446 -178 811 -322 813 -321 1 2 -48 32
-110 67 -61 35 -128 80 -148 101 -45 46 -66 122 -74 268 l-5 103 -48 53 c-95
105 -161 252 -181 401 -6 43 -15 216 -22 384 -6 168 -13 308 -15 311 -2 3
-110 43 -241 89 -131 46 -242 87 -248 92 -6 6 6 24 35 51 25 23 44 45 42 49
-1 5 2 7 6 5 8 -2 105 85 297 265 33 32 56 46 68 42 13 -4 17 0 17 17 0 13 21
41 53 72 28 28 51 55 49 60 -1 5 1 6 5 4 5 -3 27 12 49 32 l41 36 -18 375
c-19 388 -17 467 17 562 8 22 14 42 14 44 0 7 -35 3 -60 -7z m-1385 -3689 c-3
-5 -12 -10 -18 -10 -7 0 -6 4 3 10 19 12 23 12 15 0z m18 -45 c4 -8 3 -16 -1
-19 -4 -3 -9 4 -9 15 -2 23 3 25 10 4z m107 -160 c14 -19 14 -19 -2 -6 -10 7
-18 18 -18 24 0 6 1 8 3 6 1 -2 9 -13 17 -24z m31 -2 c13 -16 12 -17 -3 -4
-10 7 -18 15 -18 17 0 8 8 3 21 -13z m59 -38 c0 -2 -6 -5 -13 -8 -8 -3 -14 1
-14 8 0 7 6 11 14 8 7 -3 13 -6 13 -8z m-520 -135 c-8 -5 -19 -10 -25 -10 -5
0 -3 5 5 10 8 5 20 10 25 10 6 0 3 -5 -5 -10z m215 -100 c-3 -5 -12 -10 -18
-10 -7 0 -6 4 3 10 19 12 23 12 15 0z m10 -20 c-3 -5 -12 -10 -18 -10 -7 0 -6
4 3 10 19 12 23 12 15 0z m-1699 -702 c4 -7 3 -8 -4 -4 -7 4 -12 2 -12 -5 0
-7 -3 -10 -6 -6 -6 5 3 27 11 27 2 0 7 -5 11 -12z m-636 -8 c0 -5 -5 -10 -11
-10 -5 0 -7 5 -4 10 3 6 8 10 11 10 2 0 4 -4 4 -10z m480 -4 c0 -3 -4 -8 -10
-11 -5 -3 -10 -1 -10 4 0 6 5 11 10 11 6 0 10 -2 10 -4z m-23 -148 c-3 -7 -5
-2 -5 12 0 14 2 19 5 13 2 -7 2 -19 0 -25z m-440 -83 c0 -8 -4 -12 -9 -9 -5 3
-6 10 -3 15 9 13 12 11 12 -6z m178 -95 c-3 -5 -12 -10 -18 -10 -7 0 -6 4 3
10 19 12 23 12 15 0z m105 -54 c0 -2 -7 -7 -16 -10 -8 -3 -12 -2 -9 4 6 10 25
14 25 6z m775 -6 c-3 -5 -12 -10 -18 -10 -7 0 -6 4 3 10 19 12 23 12 15 0z
m-170 -58 c-3 -3 -11 0 -18 7 -9 10 -8 11 6 5 10 -3 15 -9 12 -12z"/>
<path d="M9635 9256 c-11 -12 -14 -14 -6 -4 13 17 13 17 -18 2 -17 -8 -29 -20
-26 -25 4 -5 -2 -6 -11 -2 -13 5 -15 3 -9 -7 5 -9 4 -11 -3 -6 -15 9 -62 -22
-63 -43 0 -10 -2 -11 -6 -4 -5 14 -42 -2 -98 -41 -16 -11 -34 -21 -40 -21 -5
-1 -9 -6 -8 -13 2 -7 -4 -9 -14 -5 -12 5 -14 3 -8 -7 5 -8 4 -11 -3 -6 -10 6
-71 -24 -105 -53 -17 -14 -17 -16 -3 -27 15 -10 15 -13 1 -24 -13 -11 -14 -10
-10 2 3 8 0 20 -7 26 -10 8 -29 1 -75 -27 -35 -21 -60 -41 -56 -44 3 -4 16 0
29 8 20 13 22 13 20 -3 -3 -18 -30 -23 -58 -10 -13 6 -16 5 -12 -6 7 -18 -12
-30 -22 -15 -5 8 -3 9 6 4 8 -5 11 -4 7 3 -5 6 -37 -8 -87 -38 -76 -45 -120
-76 -74 -52 16 8 21 8 21 -2 0 -8 -10 -12 -26 -10 -25 3 -81 -23 -81 -38 0 -4
-3 -7 -7 -6 -5 1 -29 -8 -55 -22 -48 -23 -64 -44 -31 -38 10 2 18 -1 18 -7 3
-31 18 -75 26 -75 5 0 14 11 19 25 5 14 12 25 14 25 3 0 3 -7 -1 -16 -5 -14
-3 -14 18 -2 13 7 26 15 29 19 3 3 22 13 43 22 28 14 37 24 38 45 2 24 2 24 6
4 l4 -22 47 27 c26 15 53 34 60 43 8 9 11 9 7 1 -5 -9 1 -8 19 4 14 9 23 22
19 28 -4 6 0 8 11 4 14 -6 15 -3 6 13 -9 16 -8 20 5 20 8 0 14 -3 13 -7 -5
-14 7 -15 34 -2 15 6 25 16 22 20 -3 5 1 6 9 3 8 -3 21 2 30 10 9 9 22 16 29
16 10 0 9 3 -2 11 -12 9 -11 10 7 6 15 -3 31 4 49 22 15 14 24 20 20 13 -7
-12 -5 -12 14 0 12 7 31 18 42 24 10 6 26 20 34 30 9 11 12 12 8 5 -5 -10 4
-8 27 6 19 12 53 31 77 43 24 12 39 26 35 32 -3 7 -1 8 5 4 6 -4 31 6 54 21
24 15 61 37 83 48 34 18 40 25 38 49 -2 27 -33 67 -50 65 -4 0 -17 -10 -28
-23z m15 -19 c0 -2 -9 -12 -19 -21 -14 -13 -21 -14 -27 -5 -4 7 -3 10 3 6 6
-4 16 0 23 8 12 14 20 19 20 12z m17 -22 c0 -8 -4 -12 -9 -9 -5 3 -6 10 -3 15
9 13 12 11 12 -6z m-19 -40 c-3 -3 -9 2 -12 12 -6 14 -5 15 5 6 7 -7 10 -15 7
-18z m-135 -38 c3 -8 -1 -14 -8 -14 -7 0 -11 6 -8 14 3 7 6 13 8 13 2 0 5 -6
8 -13z m-56 -22 c0 -8 -4 -12 -9 -9 -5 3 -6 10 -3 15 9 13 12 11 12 -6z m58
-25 c-3 -5 -12 -10 -18 -10 -7 0 -6 4 3 10 19 12 23 12 15 0z m-284 -83 c-10
-9 -11 -8 -5 6 3 10 9 15 12 12 3 -3 0 -11 -7 -18z m39 -11 c0 -2 -8 -10 -17
-17 -16 -13 -17 -12 -4 4 13 16 21 21 21 13z m-86 -24 c3 -5 -1 -9 -9 -9 -8 0
-12 4 -9 9 3 4 7 8 9 8 2 0 6 -4 9 -8z m105 5 c-2 -1 -15 -11 -29 -22 l-25
-20 19 23 c11 12 24 22 29 22 6 0 8 -1 6 -3z m-199 -81 c0 -2 -7 -7 -16 -10
-8 -3 -12 -2 -9 4 6 10 25 14 25 6z m21 -49 c-10 -9 -11 -8 -5 6 3 10 9 15 12
12 3 -3 0 -11 -7 -18z m-154 -22 c0 -6 -6 -12 -12 -12 -6 0 -12 6 -12 12 0 6
6 12 12 12 6 0 12 -6 12 -12z m-27 -39 c0 -2 -7 -7 -16 -10 -8 -3 -12 -2 -9 4
6 10 25 14 25 6z m55 -5 c-9 -8 -36 -10 -30 -2 2 4 11 8 20 8 8 0 13 -3 10 -6z
m-169 -77 c1 -9 0 -13 -4 -10 -3 4 -7 14 -8 22 -1 9 0 13 4 10 3 -4 7 -14 8
-22z m-56 -18 c0 -2 -8 -10 -17 -17 -16 -13 -17 -12 -4 4 13 16 21 21 21 13z"/>
<path d="M7375 9240 c-3 -5 1 -10 9 -10 9 0 16 5 16 10 0 6 -4 10 -9 10 -6 0
-13 -4 -16 -10z"/>
<path d="M7480 8772 c-70 -19 -143 -57 -175 -92 l-20 -22 43 -39 c144 -127
489 -126 626 2 l41 37 -25 27 c-33 35 -133 83 -199 95 -80 15 -217 11 -291 -8z"/>
<path d="M8499 8554 l-34 -37 27 7 c44 10 78 25 78 34 0 9 -21 32 -30 32 -3 0
-22 -16 -41 -36z"/>
<path d="M8372 7683 c-6 -3 -9 -9 -6 -15 3 -5 0 -9 -7 -7 -29 3 -41 -2 -36
-15 4 -10 0 -14 -14 -11 -10 2 -19 0 -19 -6 0 -5 -6 -8 -12 -6 -7 1 -12 -4
-11 -10 2 -8 -6 -12 -20 -10 -14 1 -21 -3 -19 -11 1 -8 -2 -11 -7 -8 -12 8
-42 -4 -36 -14 3 -4 -7 -11 -21 -14 -23 -6 -53 -22 -167 -90 -18 -10 -35 -23
-38 -28 -3 -5 -8 -9 -10 -8 -11 5 -57 -24 -52 -33 4 -6 1 -7 -7 -2 -8 5 -18 1
-27 -10 -7 -11 -13 -16 -13 -12 0 4 -10 2 -22 -4 -21 -11 -21 -12 -3 -25 23
-17 39 -18 29 -2 -4 7 -3 8 5 4 6 -4 9 -11 6 -16 -3 -5 -1 -11 5 -15 5 -3 10
-1 10 5 0 6 5 8 10 5 6 -4 7 -12 3 -18 -4 -7 2 -5 12 3 10 8 16 10 12 3 -9
-15 22 -46 39 -39 7 3 16 0 20 -6 4 -7 3 -8 -4 -4 -7 4 -12 5 -12 2 0 -3 15
-13 33 -21 17 -8 68 -37 112 -65 44 -27 87 -47 95 -44 8 3 11 2 7 -2 -9 -9 51
-46 63 -39 5 3 12 0 16 -6 4 -8 3 -9 -4 -5 -7 4 -12 5 -12 2 0 -3 9 -10 19
-16 14 -7 22 -7 27 2 5 7 3 8 -6 3 -8 -5 -11 -4 -7 3 4 5 17 8 29 4 20 -5 20
-6 4 -12 -17 -6 -16 -8 8 -28 15 -12 37 -24 49 -28 12 -4 24 -10 27 -14 3 -4
24 -18 47 -31 23 -13 83 -48 133 -77 50 -29 95 -50 101 -47 5 4 9 3 8 -2 -4
-22 3 -25 17 -7 8 10 12 13 8 5 -5 -10 7 -6 32 9 37 22 77 53 45 35 -10 -5
-12 -4 -7 4 4 6 11 9 16 6 13 -8 41 6 33 18 -4 6 0 8 10 4 16 -6 22 4 18 27
-1 5 4 5 11 -1 10 -8 35 1 95 36 46 25 83 52 83 59 0 7 4 10 10 7 5 -3 23 1
40 10 33 17 40 27 13 19 -17 -5 -17 -5 0 6 9 6 22 8 27 5 6 -3 13 1 16 9 3 9
9 14 13 12 11 -7 86 40 84 52 -2 7 4 9 14 5 11 -4 14 -3 9 5 -4 7 -12 12 -18
12 -5 0 -23 9 -39 21 -16 11 -37 18 -45 15 -9 -4 -12 -2 -8 5 4 7 -1 9 -17 5
-13 -3 -18 -3 -11 0 18 8 15 27 -4 20 -8 -3 -12 -2 -9 4 3 6 1 10 -5 10 -6 0
-18 7 -27 16 -9 8 -22 13 -30 10 -8 -4 -11 -1 -7 5 4 8 -1 9 -17 4 -18 -5 -20
-4 -9 4 12 8 12 11 -5 17 -10 4 -51 27 -89 51 -39 24 -76 43 -83 43 -7 0 -13
4 -13 10 0 5 -7 6 -17 3 -11 -4 -14 -3 -9 5 4 7 3 12 -2 12 -5 0 -26 11 -46
25 -36 24 -64 26 -50 3 4 -7 2 -8 -4 -4 -6 4 -9 12 -6 19 2 7 -9 20 -25 30
-33 20 -55 22 -45 5 4 -7 3 -8 -5 -4 -6 4 -9 12 -5 17 3 6 -3 13 -15 16 -11 3
-19 9 -16 13 7 11 -24 22 -37 13 -6 -3 -8 -2 -5 3 3 5 -8 17 -24 27 -18 10
-27 12 -24 4 4 -6 -2 -2 -12 9 -28 33 -54 44 -76 32 -20 -10 -30 -6 -33 17 -1
8 4 11 13 8 12 -5 12 -7 1 -14 -9 -6 -9 -9 -1 -9 16 0 26 17 13 25 -15 9 -43
13 -58 8z m-212 -149 c0 -8 -19 -13 -24 -6 -3 5 1 9 9 9 8 0 15 -2 15 -3z m55
-4 c3 -6 -1 -7 -9 -4 -18 7 -21 14 -7 14 6 0 13 -4 16 -10z m-176 -71 c-8 -5
-23 -8 -34 -7 -17 1 -16 1 3 5 13 3 26 12 29 21 5 12 8 13 11 3 2 -7 -2 -17
-9 -22z m-94 -49 c-3 -5 -12 -10 -18 -10 -7 0 -6 4 3 10 19 12 23 12 15 0z
m29 -26 c3 -8 2 -12 -4 -9 -6 3 -10 10 -10 16 0 14 7 11 14 -7z m911 7 c3 -5
2 -12 -3 -15 -5 -3 -9 1 -9 9 0 17 3 19 12 6z m100 -79 c-3 -3 -11 0 -18 7 -9
10 -8 11 6 5 10 -3 15 -9 12 -12z m255 -172 c0 -5 -2 -10 -4 -10 -3 0 -8 5
-11 10 -3 6 -1 10 4 10 6 0 11 -4 11 -10z m-115 -40 c-3 -5 -18 -9 -33 -9
l-27 1 30 8 c17 4 31 8 33 9 2 0 0 -3 -3 -9z m-681 -82 c-5 -8 -1 -9 12 -4 14
5 16 4 7 -5 -13 -13 -37 -3 -28 12 4 5 8 9 11 9 3 0 2 -5 -2 -12z m566 -13 c0
-2 -10 -9 -22 -15 -22 -11 -22 -10 -4 4 21 17 26 19 26 11z m-408 -52 c-6 -2
-10 -9 -7 -14 4 -5 -1 -6 -10 -2 -13 5 -14 7 -3 14 7 5 18 8 23 8 6 0 4 -3 -3
-6z m-57 -13 c3 -6 -1 -7 -9 -4 -18 7 -21 14 -7 14 6 0 13 -4 16 -10z"/>
<path d="M6157 5887 c-4 -523 -7 -1122 -7 -1330 l0 -379 31 -29 c26 -25 34
-27 47 -17 9 8 13 8 9 2 -10 -17 19 -37 56 -39 18 -1 40 -5 50 -10 9 -4 30 -4
45 -1 15 3 41 8 57 10 46 6 78 21 112 54 l32 29 0 154 c0 85 4 582 7 1106 7
984 7 991 -31 977 -7 -3 -16 0 -21 7 -5 8 -3 10 6 4 9 -6 11 -4 6 4 -5 7 -15
10 -23 7 -8 -3 -12 -2 -9 3 3 5 -1 14 -9 21 -8 7 -15 10 -15 8 0 -3 -25 19
-56 49 -31 30 -63 52 -70 49 -8 -3 -11 0 -8 8 6 17 -22 40 -37 30 -7 -4 -9 -3
-6 2 8 13 -9 39 -25 39 -7 0 -13 9 -13 19 0 11 -6 21 -14 24 -10 3 -12 -1 -8
-14 7 -18 6 -18 -8 0 -8 11 -15 25 -15 30 0 6 5 4 10 -4 5 -8 10 -10 10 -5 0
6 -10 21 -23 35 -12 14 -18 20 -13 13 16 -24 0 -14 -30 19 -16 18 -21 26 -11
19 26 -21 28 -10 3 26 l-23 33 -6 -953z m283 629 c0 -2 -8 -10 -17 -17 -16
-13 -17 -12 -4 4 13 16 21 21 21 13z m-215 -2366 c-3 -5 -12 -10 -18 -10 -7 0
-6 4 3 10 19 12 23 12 15 0z m292 -15 c0 -8 -3 -13 -5 -10 -3 3 -11 0 -18 -6
-8 -7 -14 -6 -20 2 -4 7 -3 9 3 6 6 -4 16 0 23 8 15 19 17 19 17 0z"/>
<path d="M14848 6514 c-16 -8 -28 -19 -28 -25 0 -6 -4 -7 -10 -4 -9 6 -14 -8
-11 -28 1 -5 -3 -6 -9 -2 -6 3 -8 11 -4 16 7 12 -136 -63 -178 -93 l-28 -19 0
-382 0 -382 75 -43 75 -42 40 26 c30 20 37 30 28 35 -10 7 -8 9 5 9 9 0 17 -5
17 -11 0 -5 5 -7 10 -4 6 4 8 10 5 15 -3 5 0 12 6 16 8 4 9 3 5 -4 -4 -7 -2
-12 3 -12 6 0 11 5 11 11 0 5 5 7 10 4 7 -4 10 103 11 312 0 175 3 387 5 471
3 83 1 152 -3 152 -4 -1 -20 -8 -35 -16z m12 -14 c-8 -5 -19 -10 -25 -10 -5 0
-3 5 5 10 8 5 20 10 25 10 6 0 3 -5 -5 -10z m-95 -940 c-12 -5 -14 -9 -6 -9 8
-1 12 -4 8 -7 -9 -9 -28 6 -22 17 4 5 14 9 23 8 14 0 13 -2 -3 -9z"/>
<path d="M16930 6125 c-11 -13 -10 -14 4 -9 9 3 16 10 16 15 0 13 -6 11 -20
-6z"/>
<path d="M9065 5913 c-29 -3 -44 -7 -36 -12 7 -5 -10 -8 -41 -8 -124 -1 -198
-7 -198 -15 0 -5 -15 -6 -33 -3 -24 5 -34 3 -35 -7 -2 -13 -12 -2097 -14
-2724 0 -295 1 -334 16 -357 16 -23 74 -55 121 -65 37 -8 150 -6 170 2 11 5
28 11 38 12 10 2 29 11 43 20 55 37 54 22 54 681 0 334 3 1030 6 1546 l7 937
-24 -2 c-13 -1 -46 -3 -74 -5z m12 -3120 c-4 -3 -2 -12 4 -19 7 -8 7 -14 -1
-19 -6 -4 -9 -1 -8 7 2 7 -3 12 -11 10 -12 -3 -12 0 -1 12 7 9 15 16 18 16 3
0 2 -3 -1 -7z m-277 -17 c0 -2 -7 -7 -16 -10 -8 -3 -12 -2 -9 4 6 10 25 14 25
6z"/>
<path d="M4216 5235 c-8 -9 -19 -16 -23 -16 -4 -1 -7 -5 -5 -11 1 -5 -2 -7 -7
-3 -6 3 -25 -1 -42 -10 l-31 -17 22 -15 c12 -8 22 -13 24 -12 1 2 22 25 46 52
39 43 51 67 16 32z m-59 -61 c-3 -3 -12 -4 -19 -1 -8 3 -5 6 6 6 11 1 17 -2
13 -5z"/>
<path d="M13937 5212 c-15 -9 -25 -22 -23 -29 3 -7 -4 -17 -15 -23 -10 -6 -19
-7 -18 -3 4 23 -6 21 -56 -12 -31 -19 -62 -35 -70 -35 -7 0 -16 -4 -19 -9 -7
-11 -74 3 -89 18 -22 22 -27 10 -25 -59 1 -46 5 -67 12 -63 6 3 5 0 -1 -8 -17
-17 -17 -126 0 -159 12 -24 54 -50 106 -65 18 -6 22 -4 15 6 -6 12 -5 12 8 1
23 -19 165 -1 152 19 -3 5 1 9 8 9 8 0 21 13 30 28 14 23 17 60 17 215 1 103
0 187 -1 187 -2 0 -15 -8 -31 -18z m-263 -398 c3 -8 2 -12 -4 -9 -6 3 -10 10
-10 16 0 14 7 11 14 -7z"/>
<path d="M13890 5180 c0 -5 5 -10 11 -10 5 0 7 5 4 10 -3 6 -8 10 -11 10 -2 0
-4 -4 -4 -10z"/>
<path d="M12400 4872 l0 -93 -41 -39 -42 -39 5 -83 c3 -70 9 -93 37 -144 38
-71 97 -135 149 -160 59 -28 98 -21 190 31 88 50 112 75 112 113 0 21 2 22 15
12 11 -9 19 -10 28 -1 10 8 14 7 14 -4 0 -8 -5 -12 -11 -9 -6 3 -2 -2 9 -10
11 -9 25 -14 33 -11 7 2 15 -2 18 -10 8 -20 113 -78 130 -71 8 3 13 0 11 -6
-1 -7 16 -21 38 -32 21 -12 46 -27 53 -34 8 -7 21 -11 28 -8 8 3 13 1 11 -3
-1 -5 3 -10 8 -11 6 -1 18 -8 27 -17 9 -8 21 -12 27 -9 5 4 13 1 17 -5 4 -8 3
-9 -4 -5 -7 4 -12 5 -12 3 0 -13 72 -46 88 -40 48 19 118 69 115 83 -4 13 -3
13 6 0 8 -12 13 -12 23 -2 19 19 37 15 31 -8 -3 -11 -1 -20 5 -20 6 0 17 -12
24 -27 16 -34 77 -76 100 -69 10 2 16 0 13 -5 -3 -5 12 -12 34 -15 22 -4 49
-13 58 -21 10 -8 12 -12 5 -8 -7 4 -25 -1 -40 -11 -15 -10 -31 -19 -37 -19 -5
-1 -9 -6 -8 -13 2 -6 -3 -9 -11 -6 -8 3 -24 -5 -36 -18 -13 -13 -20 -17 -16
-11 7 12 -46 -17 -149 -83 -27 -17 -67 -40 -87 -51 -21 -11 -34 -24 -30 -28 4
-5 1 -5 -6 -1 -6 4 -24 -1 -40 -12 -15 -10 -49 -32 -77 -47 -133 -73 -173 -99
-168 -108 4 -6 1 -7 -6 -2 -8 4 -24 -1 -40 -13 -15 -11 -51 -32 -79 -46 -32
-16 -50 -31 -46 -38 4 -6 3 -8 -3 -5 -6 4 -37 -8 -70 -26 -32 -18 -66 -36 -76
-40 -10 -4 -16 -11 -13 -16 3 -5 -3 -7 -14 -4 -11 3 -20 1 -20 -5 0 -5 -41 -9
-101 -9 -57 0 -95 4 -87 8 9 6 6 9 -9 9 -13 0 -23 3 -23 8 0 4 -12 15 -25 25
l-24 17 0 -112 c0 -99 -3 -121 -25 -173 -28 -65 -34 -155 -15 -198 11 -24 135
-105 194 -127 77 -29 185 47 251 176 36 72 39 83 39 163 1 85 1 86 30 100 17
8 32 18 33 23 2 4 8 6 13 2 13 -8 11 10 -3 25 -11 11 -9 11 7 1 18 -11 33 -5
115 43 52 30 109 69 127 86 18 19 34 27 38 21 4 -6 11 -8 16 -4 5 3 6 10 3 16
-4 7 -2 8 4 4 10 -6 96 36 112 54 3 3 16 11 30 18 87 45 100 54 95 63 -4 5 -3
9 2 8 4 -1 16 1 26 4 9 4 24 9 33 12 8 3 12 9 9 15 -4 6 -10 8 -14 6 -4 -3 -8
1 -8 9 0 12 3 12 20 0 17 -12 29 -7 105 37 48 27 92 54 97 60 7 8 6 8 -4 3 -9
-5 -12 -4 -8 3 4 5 17 8 29 4 14 -3 19 -1 14 6 -5 8 -2 10 8 6 10 -4 16 -1 16
7 0 11 2 11 10 -1 7 -12 13 -13 28 -4 14 9 22 8 37 -2 10 -8 14 -14 9 -14 -6
0 -15 5 -20 10 -8 8 -15 6 -24 -5 -13 -16 -5 -20 29 -16 8 2 10 -2 5 -11 -4
-7 2 -5 13 5 11 9 24 17 29 17 5 0 1 -5 -8 -11 -10 -5 -18 -14 -18 -19 0 -13
59 -42 71 -35 5 4 8 1 7 -6 -2 -7 11 -17 27 -23 17 -6 35 -16 40 -22 6 -6 23
-18 38 -28 24 -15 31 -15 45 -4 15 11 15 11 5 -3 -11 -13 -8 -18 15 -30 15 -7
55 -31 90 -52 35 -20 67 -35 72 -32 4 3 10 -1 13 -8 3 -7 27 -24 53 -38 27
-13 51 -26 54 -30 8 -9 77 -49 84 -49 4 0 4 5 1 10 -10 16 1 11 16 -7 10 -11
10 -14 2 -9 -7 4 -13 5 -13 2 0 -3 19 -15 43 -27 l42 -22 -20 24 c-12 14 -13
19 -4 11 9 -7 23 -11 30 -9 8 2 11 2 7 0 -18 -10 -5 -31 30 -49 20 -10 39 -22
40 -26 2 -5 13 -8 24 -8 18 0 18 -1 3 -17 -14 -14 -17 -30 -13 -87 10 -154
140 -316 253 -316 59 0 203 83 227 131 21 39 23 91 7 155 -9 34 -15 44 -27 39
-9 -3 -4 5 10 18 25 23 26 29 26 132 l1 107 -28 -26 c-15 -14 -36 -26 -47 -26
-14 0 -15 -3 -6 -9 7 -4 -27 -7 -80 -7 -80 1 -100 5 -147 28 -30 15 -59 25
-65 21 -6 -3 -8 -2 -3 2 9 11 -72 57 -86 48 -6 -3 -7 -1 -3 5 4 7 -14 22 -46
38 -29 15 -65 35 -80 46 -16 11 -33 16 -39 12 -7 -4 -9 -3 -6 3 7 10 -20 28
-35 25 -5 -1 -8 3 -8 9 0 5 -5 7 -10 4 -6 -4 -7 -11 -4 -17 4 -7 2 -8 -5 -4
-6 4 -9 11 -6 15 2 5 -3 15 -13 23 -26 22 -337 198 -350 198 -7 0 -12 5 -12
11 0 5 -5 7 -10 4 -6 -4 -7 -11 -4 -17 4 -7 2 -8 -4 -4 -6 4 -9 12 -7 19 6 15
-71 60 -87 51 -6 -4 -8 -3 -5 3 3 5 -13 20 -36 33 -23 13 -57 34 -76 46 l-34
23 38 15 c21 9 45 16 55 16 47 0 140 81 140 122 0 24 5 23 62 -12 27 -17 54
-27 60 -24 6 4 8 3 5 -3 -3 -5 10 -17 29 -26 40 -20 48 -21 39 -7 -5 8 8 15
18 8 8 -6 46 25 41 34 -4 7 -3 8 4 4 13 -8 72 23 72 37 0 4 5 5 10 2 6 -3 10
-1 10 4 0 6 -6 11 -12 11 -7 0 -2 7 11 16 16 11 26 13 33 6 7 -7 22 -3 49 14
21 13 41 24 45 24 7 0 34 27 34 35 0 3 -6 3 -12 -1 -7 -4 -9 -3 -5 1 10 12 38
15 31 4 -7 -12 3 -11 27 2 11 5 16 15 13 21 -4 6 -3 8 4 5 13 -9 42 2 42 15 0
6 -8 4 -17 -3 -16 -12 -17 -12 -5 2 7 9 10 25 7 35 -4 12 -2 11 6 -3 7 -13 18
-23 26 -23 8 0 12 4 9 8 -3 5 0 9 7 9 7 0 12 -13 13 -29 2 -41 39 -76 136
-127 70 -37 89 -43 119 -37 118 22 238 188 239 329 0 58 -19 112 -42 119 -8 3
-11 36 -9 117 l3 113 -29 -19 c-15 -11 -59 -37 -98 -58 -38 -21 -72 -41 -75
-44 -3 -3 -34 -21 -70 -40 -36 -19 -72 -40 -81 -47 -8 -8 -18 -14 -22 -14 -3
0 -42 -22 -86 -49 -44 -27 -88 -52 -99 -55 -28 -9 -63 -42 -54 -51 4 -5 1 -5
-6 -1 -18 11 -94 -35 -87 -52 4 -11 2 -12 -7 -4 -10 8 -30 0 -78 -29 -36 -22
-64 -44 -62 -50 1 -6 -2 -8 -7 -5 -10 7 -117 -47 -188 -94 -23 -16 -44 -26
-47 -22 -3 3 -6 99 -6 214 0 165 -3 208 -12 202 -10 -6 -10 -4 -2 7 6 8 11 22
11 31 0 15 -3 14 -22 -5 -12 -12 -19 -26 -17 -31 3 -5 -1 -6 -8 -1 -8 5 -18 2
-26 -9 -7 -10 -16 -17 -21 -17 -19 2 -64 -19 -59 -28 4 -5 2 -13 -4 -16 -6 -4
-9 -1 -8 6 2 8 -29 13 -112 15 -149 5 -169 7 -162 18 3 5 -5 7 -16 4 -12 -4
-20 -2 -17 2 5 9 -65 55 -78 52 -5 -2 -6 2 -3 7 4 5 2 12 -4 16 -7 4 -9 -73
-8 -234 l3 -240 -43 24 c-23 13 -40 20 -37 15 3 -6 -1 -7 -9 -4 -9 3 -14 10
-11 14 6 10 -24 22 -36 14 -5 -3 -8 0 -7 7 2 7 -1 14 -7 14 -10 1 -79 41 -142
83 -19 12 -58 34 -86 49 -29 14 -63 33 -77 43 -55 37 -161 90 -171 85 -5 -4
-8 -1 -7 5 2 6 -15 21 -36 33 -22 12 -46 28 -54 35 -8 7 -21 11 -29 8 -8 -3
-12 -2 -9 3 7 11 -43 33 -56 25 -7 -4 -8 -2 -4 4 8 14 -30 36 -46 26 -6 -4 -8
-3 -4 4 3 6 -17 23 -49 41 -30 17 -80 45 -110 62 -30 17 -62 40 -70 52 -14 20
-15 14 -15 -71z m82 -204 c12 -7 28 -19 36 -25 7 -7 18 -13 23 -13 5 0 22 -27
39 -60 51 -101 36 -190 -33 -190 -74 0 -153 99 -164 205 -5 48 -3 53 22 73 32
25 47 27 77 10z m332 0 c-5 -8 -2 -9 9 -5 23 9 21 0 -2 -13 -16 -8 -19 -7 -16
8 5 23 4 22 11 22 3 0 2 -5 -2 -12z m2337 -44 c7 -9 13 -39 13 -68 -1 -148
-182 -283 -223 -166 -21 60 19 164 87 227 30 28 102 32 123 7z m-300 -91 c13
-16 12 -17 -3 -4 -10 7 -18 15 -18 17 0 8 8 3 21 -13z m39 11 c0 -8 -19 -13
-24 -6 -3 5 1 9 9 9 8 0 15 -2 15 -3z m-235 -93 c3 -5 2 -12 -3 -15 -5 -3 -9
1 -9 9 0 17 3 19 12 6z m-1698 -26 c0 -8 -4 -12 -9 -9 -5 3 -6 10 -3 15 9 13
12 11 12 -6z m78 -44 c3 -5 0 -13 -6 -17 -8 -5 -9 -3 -4 6 6 10 4 12 -9 7 -10
-4 -15 -3 -11 3 8 13 22 13 30 1z m82 -30 c0 -11 -5 -17 -9 -15 -5 3 -6 10 -2
15 3 6 -2 17 -12 25 -18 14 -18 14 3 5 12 -6 21 -19 20 -30z m-34 -6 c-3 -9
-8 -14 -10 -11 -3 3 -2 9 2 15 9 16 15 13 8 -4z m1140 -5 c4 0 5 5 1 12 -5 7
-3 8 5 3 9 -5 10 -10 2 -18 -8 -8 -15 -6 -26 6 -8 9 -10 12 -3 7 7 -6 16 -10
21 -10z m-748 -29 c3 -5 2 -12 -3 -15 -5 -3 -9 1 -9 9 0 17 3 19 12 6z m888
-3 c-2 -5 -10 -8 -18 -8 -8 0 -16 3 -18 8 -3 4 5 7 18 7 13 0 21 -3 18 -7z
m-1192 -21 c-10 -9 -11 -8 -5 6 3 10 9 15 12 12 3 -3 0 -11 -7 -18z m964 3
c-3 -5 -11 -10 -16 -10 -6 0 -7 5 -4 10 3 6 11 10 16 10 6 0 7 -4 4 -10z m150
-60 c9 8 14 7 18 -3 3 -9 -2 -13 -16 -12 -11 1 -22 7 -23 14 -2 7 0 7 3 1 3
-8 9 -8 18 0z m-980 -18 c-3 -3 -11 0 -18 7 -9 10 -8 11 6 5 10 -3 15 -9 12
-12z m275 -16 c-7 -7 -13 -7 -20 0 -6 6 -3 10 10 10 13 0 16 -4 10 -10z m123
-293 c-3 -7 -6 -13 -8 -13 -2 0 -5 6 -8 13 -3 8 1 14 8 14 7 0 11 -6 8 -14z
m355 -82 c11 -6 10 -10 -4 -15 -9 -3 -19 -4 -22 -1 -3 3 1 5 9 5 11 0 11 2 -1
10 -8 5 -10 10 -5 10 6 0 16 -4 23 -9z m-488 -31 c0 -5 -2 -10 -4 -10 -3 0 -8
5 -11 10 -3 6 -1 10 4 10 6 0 11 -4 11 -10z m780 -14 c0 -2 -7 -7 -16 -10 -8
-3 -12 -2 -9 4 6 10 25 14 25 6z m-1220 -50 c0 -2 -8 -10 -17 -17 -16 -13 -17
-12 -4 4 13 16 21 21 21 13z m1061 -23 c13 -17 13 -17 -6 -3 -11 8 -22 16 -24
17 -2 2 0 3 6 3 6 0 17 -8 24 -17z m41 -18 c3 -13 1 -22 -3 -19 -9 5 -13 44
-5 44 2 0 6 -11 8 -25z m-928 -20 c-5 -11 -1 -14 12 -9 17 5 18 5 2 -6 -10 -6
-21 -11 -25 -10 -12 0 -10 24 2 32 14 11 15 10 9 -7z m993 -5 c-2 -11 -7 -23
-12 -27 -4 -5 -5 -2 -1 5 4 6 2 12 -4 12 -7 0 -6 5 2 15 17 19 18 19 15 -5z
m-1272 -30 c3 -5 1 -10 -4 -10 -6 0 -11 5 -11 10 0 6 2 10 4 10 3 0 8 -4 11
-10z m1420 -63 c15 -12 16 -15 4 -22 -8 -5 -10 -4 -6 0 4 5 -3 15 -15 22 -13
7 -18 12 -12 13 5 0 18 -6 29 -13z m-1449 -65 c-8 -8 -19 -11 -25 -7 -16 9 -4
24 19 22 17 -1 18 -3 6 -15z m1551 -4 c-3 -8 -6 -5 -6 6 -1 11 2 17 5 13 3 -3
4 -12 1 -19z m90 -5 c0 -8 -6 -9 -17 -3 -10 5 -21 6 -25 2 -5 -4 -6 -2 -2 3 8
15 44 13 44 -2z m-1609 -20 c-12 -15 -22 -18 -14 -4 4 5 0 11 -6 14 -7 3 -3 4
9 4 17 -1 19 -4 11 -14z m-126 -50 c-6 -2 -9 -10 -6 -15 4 -7 2 -8 -5 -4 -13
9 -5 26 12 25 9 0 8 -2 -1 -6z m1813 -2 c3 -5 2 -12 -3 -15 -5 -3 -9 1 -9 9 0
17 3 19 12 6z m-1892 -26 c-3 -9 -8 -14 -10 -11 -3 3 -2 9 2 15 9 16 15 13 8
-4z m29 -17 c-7 -7 -12 -8 -12 -2 0 14 12 26 19 19 2 -3 -1 -11 -7 -17z m-407
-28 c3 -6 -1 -7 -9 -4 -18 7 -21 14 -7 14 6 0 13 -4 16 -10z m2728 -15 c-3 -9
-8 -14 -10 -11 -3 3 -2 9 2 15 9 16 15 13 8 -4z m-328 -35 c22 -15 56 -32 76
-39 29 -9 38 -19 49 -52 19 -56 17 -101 -4 -134 -16 -24 -23 -27 -53 -22 -95
16 -183 161 -153 251 13 40 20 39 85 -4z m-2381 -9 c-3 -3 -15 6 -27 18 l-22
24 27 -19 c14 -10 24 -21 22 -23z m324 -23 c16 -62 -18 -158 -74 -208 -86 -75
-165 -40 -149 66 6 43 47 129 61 130 40 2 95 18 105 30 21 25 48 17 57 -18z
m-253 2 c-3 -5 -12 -10 -18 -10 -7 0 -6 4 3 10 19 12 23 12 15 0z"/>
<path d="M14435 4301 c-6 -11 9 -23 19 -14 9 9 7 23 -3 23 -6 0 -12 -4 -16 -9z"/>
<path d="M947 3336 c-4 -9 -13 -13 -20 -10 -8 3 -17 -2 -21 -11 -3 -9 -11 -13
-17 -9 -8 4 -9 3 -5 -5 6 -9 11 -9 24 1 13 11 15 10 9 -5 -4 -11 -3 -16 4 -12
6 4 8 13 5 21 -3 8 0 11 8 8 12 -5 32 24 22 33 -2 2 -6 -3 -9 -11z"/>
<path d="M859 3308 c-6 -21 -5 -38 1 -38 5 0 8 9 7 20 -1 17 -5 26 -8 18z"/>
<path d="M940 3289 c0 -5 5 -7 10 -4 6 3 10 8 10 11 0 2 -4 4 -10 4 -5 0 -10
-5 -10 -11z"/>
<path d="M19040 3290 c0 -5 5 -10 11 -10 5 0 7 5 4 10 -3 6 -8 10 -11 10 -2 0
-4 -4 -4 -10z"/>
<path d="M827 3283 c-10 -9 -9 -23 1 -23 5 0 9 7 9 15 0 17 -1 18 -10 8z"/>
<path d="M789 3263 c-1 -4 -1 -12 0 -17 1 -5 -5 -6 -14 -2 -9 3 -14 2 -10 -3
3 -5 -1 -12 -7 -14 -8 -4 -9 -6 -2 -6 20 -2 59 35 46 43 -7 4 -13 4 -13 -1z"/>
<path d="M826 3235 c-11 -8 -15 -15 -9 -15 6 0 16 7 23 15 16 19 11 19 -14 0z"/>
<path d="M705 3210 c-3 -6 1 -7 9 -4 18 7 21 14 7 14 -6 0 -13 -4 -16 -10z"/>
<path d="M780 3210 c-9 -6 -10 -10 -3 -10 6 0 15 5 18 10 8 12 4 12 -15 0z"/>
<path d="M700 3180 c-9 -6 -10 -10 -3 -10 6 0 15 5 18 10 8 12 4 12 -15 0z"/>
<path d="M646 3158 c3 -5 11 -7 17 -5 7 2 21 -3 32 -11 19 -16 19 -16 3 3 -17
18 -62 30 -52 13z"/>
<path d="M2465 1750 c3 -5 8 -10 11 -10 2 0 4 5 4 10 0 6 -5 10 -11 10 -5 0
-7 -4 -4 -10z"/>
<path d="M17520 1749 c0 -5 5 -7 10 -4 6 3 10 8 10 11 0 2 -4 4 -10 4 -5 0
-10 -5 -10 -11z"/>
<path d="M2865 1430 c3 -5 8 -10 11 -10 2 0 4 5 4 10 0 6 -5 10 -11 10 -5 0
-7 -4 -4 -10z"/>
<path d="M17120 1429 c0 -5 5 -7 10 -4 6 3 10 8 10 11 0 2 -4 4 -10 4 -5 0
-10 -5 -10 -11z"/>
</g>
</svg>
