<?xml version="1.0" standalone="no"?>
<!DOCTYPE svg PUBLIC "-//W3C//DTD SVG 20010904//EN"
 "http://www.w3.org/TR/2001/REC-SVG-20010904/DTD/svg10.dtd">
<svg version="1.0" xmlns="http://www.w3.org/2000/svg"
 width="1961.000000pt" height="1524.000000pt" viewBox="0 0 1961.000000 1524.000000"
 preserveAspectRatio="xMidYMid meet">

<g transform="translate(0.000000,1524.000000) scale(0.100000,-0.100000)"
fill="#000000" stroke="none">
<path d="M9693 9583 c9 -2 23 -2 30 0 6 3 -1 5 -18 5 -16 0 -22 -2 -12 -5z"/>
<path d="M9075 9490 c-3 -6 1 -7 9 -4 18 7 21 14 7 14 -6 0 -13 -4 -16 -10z"/>
<path d="M10207 9359 c7 -7 15 -10 18 -7 3 3 -2 9 -12 12 -14 6 -15 5 -6 -5z"/>
<path d="M10270 9321 c0 -6 4 -13 10 -16 6 -3 7 1 4 9 -7 18 -14 21 -14 7z"/>
<path d="M10336 9296 c6 -15 4 -17 -6 -11 -9 6 -11 4 -5 -4 5 -9 10 -10 18 -2
8 8 7 14 -2 24 -10 10 -11 8 -5 -7z"/>
<path d="M8730 9266 c0 -2 8 -10 18 -17 15 -13 16 -12 3 4 -13 16 -21 21 -21
13z"/>
<path d="M10450 9186 c0 -2 8 -10 18 -17 15 -13 16 -12 3 4 -13 16 -21 21 -21
13z"/>
<path d="M8638 9133 c-18 -21 -31 -43 -25 -43 2 0 13 14 25 30 25 33 24 41 0
13z"/>
<path d="M10461 9143 c-1 -17 16 -25 25 -12 4 7 3 9 -4 5 -5 -3 -13 0 -15 6
-4 9 -6 10 -6 1z"/>
<path d="M8536 9033 c-6 -14 -5 -15 5 -6 7 7 10 15 7 18 -3 3 -9 -2 -12 -12z"/>
<path d="M8464 8915 c-7 -17 3 -35 19 -35 8 0 7 3 -2 9 -8 5 -11 16 -8 25 4 9
4 16 1 16 -2 0 -7 -7 -10 -15z"/>
<path d="M8426 8833 c-4 -9 -3 -20 1 -24 4 -4 9 3 9 17 2 28 -1 31 -10 7z"/>
<path d="M10781 8474 c0 -11 3 -14 6 -6 3 7 2 16 -1 19 -3 4 -6 -2 -5 -13z"/>
<path d="M8446 8438 c-9 -12 -16 -33 -16 -45 0 -15 -6 -23 -17 -24 -11 0 -13
-3 -6 -6 10 -3 13 -99 13 -423 0 -231 2 -431 6 -445 l6 -25 -171 0 c-163 0
-171 1 -171 20 0 18 8 20 132 22 l132 3 -40 20 c-54 28 -115 76 -108 87 3 5 2
7 -3 6 -5 -2 -24 14 -42 35 -18 20 -29 37 -25 37 5 0 4 4 -2 8 -17 11 -46 71
-39 81 3 5 0 11 -6 13 -20 7 -24 186 -5 251 9 30 16 58 16 61 0 3 -348 6 -774
6 -840 0 -816 1 -891 -56 -19 -14 -46 -49 -60 -77 l-25 -52 0 -788 -1 -789
106 -144 105 -144 0 -255 c0 -220 -2 -255 -15 -255 -8 0 -15 -4 -15 -10 0 -5
7 -10 15 -10 8 0 15 -5 15 -10 0 -7 -13 -9 -32 -5 -21 4 -48 0 -72 -10 -21 -9
-45 -14 -52 -11 -11 4 -14 -6 -15 -42 -1 -39 -3 -42 -8 -17 -3 17 -11 31 -18
32 -10 2 -13 -112 -13 -510 -1 -281 -3 -611 -6 -731 l-4 -219 -82 -176 c-284
-617 -525 -1248 -628 -1645 -58 -224 -73 -336 -67 -486 14 -335 128 -520 320
-520 55 0 176 35 257 75 68 34 167 91 180 105 3 3 35 31 72 63 60 52 210 235
226 276 3 8 12 23 20 32 8 9 37 59 64 110 53 99 86 175 314 724 36 88 78 189
93 225 15 36 54 129 87 207 32 78 62 139 66 135 3 -4 14 -70 23 -147 53 -454
125 -821 212 -1092 l37 -113 -37 -147 c-60 -242 -71 -319 -71 -518 -1 -173 15
-310 33 -289 5 5 20 56 36 114 34 132 140 482 199 660 200 605 410 1032 615
1252 97 105 177 145 311 158 498 48 1299 50 1850 5 219 -18 243 -27 362 -141
34 -33 65 -58 70 -57 4 2 7 -3 5 -10 -1 -6 4 -11 11 -9 8 1 11 -2 7 -8 -3 -5
9 -29 28 -53 116 -143 323 -567 435 -892 11 -33 39 -111 61 -173 48 -136 128
-393 186 -597 53 -185 60 -173 52 83 -5 190 -17 266 -74 485 l-36 138 36 107
c44 130 86 296 126 502 27 140 68 403 73 472 1 16 6 28 11 28 4 0 46 -19 92
-43 l84 -42 50 -120 c27 -66 72 -176 101 -245 28 -69 74 -181 102 -250 98
-244 239 -508 329 -614 9 -12 38 -46 63 -76 107 -127 307 -253 476 -299 97
-27 153 -26 216 3 118 55 188 199 214 441 12 115 3 225 -34 403 l-23 112 21 0
c33 0 2266 169 2314 176 l42 5 0 60 c0 54 11 85 116 327 236 545 808 1869 837
1940 16 40 27 75 24 78 -5 5 -485 195 -1481 585 -126 49 -230 88 -231 87 -1
-2 -53 -120 -115 -263 -62 -143 -147 -341 -190 -440 -208 -481 -612 -1410
-613 -1411 -3 -3 -1031 -84 -1063 -84 l-31 0 -112 258 -111 259 0 2084 c-1
1715 -3 2091 -14 2122 -20 55 -61 103 -114 134 l-47 28 -857 3 c-472 1 -858 1
-858 -2 0 -2 7 -23 16 -47 13 -38 19 -120 14 -194 -3 -45 -24 -114 -33 -108
-5 3 -7 0 -5 -8 10 -30 -95 -174 -120 -164 -7 2 -11 1 -8 -4 7 -11 -41 -44
-54 -36 -5 3 -12 0 -16 -6 -4 -8 -3 -9 4 -5 7 4 12 5 12 2 0 -8 -91 -46 -111
-46 -20 0 -22 19 -4 32 6 5 5 8 -2 8 -10 0 -13 83 -12 378 2 510 1 518 -21
357 -10 -71 -26 -172 -35 -223 -16 -85 -20 -94 -44 -103 -14 -6 -38 -22 -53
-37 l-28 -26 0 -161 0 -161 -45 -22 c-25 -12 -62 -25 -83 -28 -39 -6 -50 -20
-100 -126 -2 -5 114 -8 257 -8 254 0 261 -1 261 -20 0 -20 -7 -20 -270 -20
-208 0 -272 -3 -274 -12 -3 -7 -7 -30 -10 -50 l-5 -38 205 0 c197 0 204 -1
204 -20 0 -19 -7 -20 -207 -20 l-206 0 6 -142 c7 -151 29 -282 73 -432 15 -50
28 -92 29 -94 2 -2 80 -3 174 -3 l171 0 0 -24 0 -25 -161 0 -160 0 7 -22 c12
-40 89 -201 117 -245 15 -24 27 -45 27 -48 0 -2 -435 -5 -966 -5 l-966 0 20
33 c37 59 142 277 142 293 0 2 -65 4 -145 4 -138 0 -145 1 -145 20 0 19 7 20
145 20 131 0 145 -2 145 -17 1 -22 25 31 35 75 l7 32 -74 0 c-67 0 -74 2 -75
20 -2 19 4 20 82 20 82 0 83 0 89 28 4 15 9 35 12 45 5 16 -8 17 -169 17 -141
0 -176 3 -180 14 -3 8 -3 17 0 20 4 3 86 6 184 6 l177 0 6 28 c16 76 26 178
26 275 l0 107 -50 0 c-46 0 -50 2 -50 24 0 20 5 24 33 23 70 0 68 -2 61 54 -4
31 -21 74 -42 110 l-35 59 -69 0 c-61 0 -68 2 -68 20 0 16 7 20 38 20 l37 1
-48 19 c-80 31 -77 24 -77 200 0 157 0 157 -27 184 -14 14 -36 29 -49 32 -14
4 -25 16 -29 32 -12 58 -23 284 -18 381 6 106 -1 123 -31 79z m-751 -948 c0
-13 -35 -15 -250 -15 -235 0 -282 5 -268 28 2 4 120 6 261 5 221 -3 257 -5
257 -18z m285 0 c0 -19 -7 -20 -100 -20 -93 0 -100 1 -100 20 0 19 7 20 100
20 93 0 100 -1 100 -20z m350 -130 c0 -20 -7 -20 -470 -20 -463 0 -470 0 -470
20 0 20 7 20 470 20 463 0 470 0 470 -20z m480 0 c0 -19 -7 -20 -175 -20 -168
0 -175 1 -175 20 0 19 7 20 175 20 168 0 175 -1 175 -20z m-782 -137 l3 -23
-210 0 c-198 0 -211 1 -211 18 0 10 3 21 6 25 3 3 96 5 207 4 201 -2 202 -2
205 -24z m642 2 l0 -25 -170 0 c-158 0 -170 1 -170 18 0 10 3 21 6 24 3 3 79
6 170 7 l164 0 0 -24z m-447 8 c37 -9 3 -23 -59 -23 -50 0 -64 3 -64 15 0 11
13 14 53 13 28 0 60 -3 70 -5z m3357 -13 c0 -20 -7 -20 -400 -20 -393 0 -400
0 -400 20 0 20 7 20 400 20 393 0 400 0 400 -20z m-3220 -450 c0 -20 -7 -20
-585 -20 -578 0 -585 0 -585 20 0 20 7 20 585 20 578 0 585 0 585 -20z m2450
0 c0 -19 -7 -20 -220 -20 -213 0 -220 1 -220 20 0 19 7 20 220 20 213 0 220
-1 220 -20z m260 0 c0 -18 -7 -20 -85 -20 -78 0 -85 2 -85 20 0 18 7 20 85 20
78 0 85 -2 85 -20z m-2960 -130 c0 -20 -7 -20 -375 -20 -368 0 -375 0 -375 20
0 20 7 20 375 20 368 0 375 0 375 -20z m380 0 c0 -19 -7 -20 -135 -20 -128 0
-135 1 -135 20 0 19 7 20 135 20 128 0 135 -1 135 -20z m-450 -130 c0 -18 -7
-20 -60 -20 -53 0 -60 2 -60 20 0 18 7 20 60 20 53 0 60 -2 60 -20z m340 0 c0
-19 -7 -20 -135 -20 -128 0 -135 1 -135 20 0 19 7 20 135 20 128 0 135 -1 135
-20z m-530 -5 c0 -13 -22 -15 -150 -15 -123 0 -150 3 -150 14 0 12 28 15 150
15 128 1 150 -1 150 -14z m-140 -575 c0 -20 -7 -20 -270 -20 -263 0 -270 0
-270 20 0 20 7 20 270 20 263 0 270 0 270 -20z m270 0 c0 -19 -7 -20 -100 -20
-93 0 -100 1 -100 20 0 19 7 20 100 20 93 0 100 -1 100 -20z m150 5 c-32 -18
-40 -18 -40 0 0 10 10 15 33 15 l32 -1 -25 -14z m-369 -135 c-37 -17 -65 -20
-207 -20 -157 0 -164 1 -164 20 0 19 7 20 208 20 l207 0 -44 -20z m7778 -807
c91 -36 170 -70 175 -74 6 -5 6 -16 0 -28 -8 -18 -19 -15 -184 52 -96 39 -177
72 -178 73 -6 4 9 44 15 44 3 0 80 -30 172 -67z m-79 -95 c30 -14 61 -27 68
-29 10 -3 10 -7 0 -20 -12 -15 -19 -14 -76 8 -38 15 -59 29 -55 36 4 7 0 8
-11 4 -23 -9 -37 0 -30 17 7 19 38 14 104 -16z m345 -10 c26 -12 30 -24 16
-47 -8 -12 -14 -12 -40 -1 -35 14 -35 14 -21 41 13 22 12 22 45 7z m-38 -111
c57 -23 103 -45 103 -48 0 -3 -6 -13 -13 -23 -12 -17 -20 -15 -128 29 -63 26
-124 51 -136 56 -20 7 -21 11 -12 33 12 25 13 25 48 10 20 -9 82 -34 138 -57z
m218 41 c44 -17 81 -32 82 -33 7 -4 -11 -45 -21 -45 -9 0 -165 58 -174 66 -6
4 18 44 26 44 4 0 43 -14 87 -32z m-497 -49 c70 -28 130 -54 134 -58 4 -3 1
-16 -5 -28 -12 -21 -13 -21 -140 32 -71 30 -131 56 -134 59 -6 5 6 46 13 46 3
0 62 -23 132 -51z m471 -70 c32 -11 37 -23 22 -48 -13 -20 -85 5 -77 26 3 8 6
19 6 24 0 12 10 11 49 -2z m-266 -30 c17 -8 23 -17 20 -30 -5 -16 -7 -17 -27
-4 -13 9 -26 12 -29 8 -4 -3 -7 0 -7 9 0 13 9 28 16 28 2 0 14 -5 27 -11z
m150 -54 c35 -14 38 -23 20 -57 -3 -6 -100 26 -110 36 -1 1 0 12 4 25 6 25 19
24 86 -4z m224 -91 c76 -31 142 -60 147 -65 6 -5 6 -16 0 -28 -9 -18 -17 -16
-161 41 -148 60 -151 61 -141 84 6 13 13 24 14 24 2 0 65 -25 141 -56z m-727
-54 c69 -29 127 -55 128 -56 8 -5 -10 -44 -19 -44 -6 0 -80 30 -164 66 -150
64 -154 66 -143 89 10 23 13 23 42 11 17 -7 87 -37 156 -66z m-113 -91 c7 -34
-12 -40 -60 -19 -26 12 -46 24 -44 28 2 4 7 15 10 24 6 17 9 16 49 -1 24 -10
44 -24 45 -32z m361 -19 c51 -22 68 -49 41 -65 -9 -6 -139 43 -139 52 0 16 24
44 33 40 7 -3 36 -15 65 -27z m-195 -45 c64 -27 117 -53 117 -56 0 -3 -6 -13
-13 -23 -12 -16 -21 -14 -127 34 -63 29 -117 54 -118 55 -7 6 10 46 18 43 4
-2 60 -25 123 -53z m-300 11 c29 -13 80 -36 115 -51 34 -16 62 -30 62 -31 0
-19 -14 -32 -28 -25 -68 33 -135 61 -148 61 -9 0 -12 5 -8 12 4 7 3 8 -4 4
-12 -7 -72 19 -72 33 0 10 11 21 22 21 5 0 33 -11 61 -24z m667 -50 c-1 -31
-17 -38 -54 -22 -40 16 -41 19 -26 46 10 19 12 19 45 3 19 -9 35 -21 35 -27z
m-334 -86 c7 0 4 -25 -5 -39 -7 -11 -18 -10 -65 9 -55 23 -62 32 -50 64 5 13
14 12 61 -10 31 -13 57 -24 59 -24z m153 41 c8 -5 11 -16 6 -30 -5 -17 -12
-20 -28 -15 -29 9 -30 9 -22 33 7 22 21 26 44 12z m-448 -40 c35 -17 291 -132
569 -256 278 -124 508 -229 511 -233 4 -4 3 -17 -1 -28 -8 -21 -34 -11 -586
237 -318 143 -579 260 -580 262 -6 6 8 47 16 47 4 0 36 -13 71 -29z m377 -42
c28 -10 30 -13 20 -35 -8 -17 -17 -23 -27 -18 -9 3 -24 9 -33 11 -25 7 -23 53
2 53 4 0 21 -5 38 -11z m215 -94 c102 -45 137 -64 137 -78 0 -10 -6 -20 -14
-23 -8 -3 -77 22 -154 56 -138 61 -140 63 -130 86 7 14 14 23 18 22 3 -2 68
-30 143 -63z m-780 -144 c109 -50 116 -55 105 -75 -6 -11 -12 -22 -13 -24 -1
-1 -56 24 -123 55 -114 55 -120 59 -111 81 5 13 13 22 18 20 4 -1 61 -27 124
-57z m11 -140 c-1 -6 -2 -18 -2 -26 -2 -11 -16 -8 -69 16 -81 36 -87 41 -79
67 7 20 9 19 79 -13 40 -18 72 -38 71 -44z m215 -91 c120 -56 161 -79 161 -93
0 -10 -6 -20 -14 -23 -12 -4 -309 126 -328 145 -9 8 2 53 12 49 5 -2 81 -37
169 -78z m-300 8 c28 -12 47 -26 44 -31 -3 -6 -1 -7 5 -3 6 4 27 0 47 -8 31
-13 34 -18 24 -33 -10 -17 -16 -16 -94 22 -60 29 -83 45 -82 57 2 22 -3 22 56
-4z m219 -94 c11 -7 -12 -44 -26 -44 -31 0 -45 16 -38 44 6 24 8 25 34 14 15
-7 29 -13 30 -14z m372 -67 c-1 -36 -17 -39 -69 -13 -28 15 -50 30 -48 34 2 4
7 15 10 25 6 16 10 16 57 -8 27 -14 50 -31 50 -38z m-690 -27 c77 -39 140 -73
140 -76 0 -3 -5 -14 -10 -25 -10 -18 -19 -15 -153 52 -78 39 -144 73 -145 74
-7 6 10 45 19 45 5 0 72 -32 149 -70z m531 -10 c96 -44 175 -85 176 -92 2 -7
-1 -19 -6 -27 -7 -10 -43 3 -177 64 -93 43 -173 81 -177 85 -8 7 -1 50 8 50 1
0 81 -36 176 -80z m-491 -140 c0 -3 -6 -14 -13 -24 -12 -17 -18 -15 -99 25
-80 40 -85 44 -76 65 l10 22 89 -41 c49 -22 89 -43 89 -47z m230 20 c40 -20
47 -33 31 -58 -6 -11 -22 -7 -73 20 -59 30 -65 35 -57 55 9 25 20 23 99 -17z
m-450 -30 c33 -17 60 -33 60 -36 0 -3 -5 -14 -10 -25 -10 -18 -13 -18 -73 12
-34 17 -63 32 -64 33 -6 5 11 46 18 46 5 0 36 -14 69 -30z m295 -22 c26 -12
30 -24 16 -47 -8 -12 -14 -12 -40 -1 -32 13 -35 18 -25 44 7 19 15 20 49 4z
m-170 -40 c26 -12 29 -17 19 -42 -13 -35 -71 -3 -60 32 9 26 8 25 41 10z m462
-120 c2 -7 -1 -19 -5 -26 -6 -9 -37 1 -125 42 -64 31 -117 58 -117 61 0 4 4
15 10 25 9 17 17 15 122 -35 62 -29 114 -59 115 -67z m-242 1 c85 -44 155 -84
155 -87 0 -4 -5 -14 -10 -22 -8 -13 -35 -2 -165 65 -85 44 -155 83 -155 87 0
11 12 38 16 38 3 0 74 -36 159 -81z m-3079 -36 c-10 -10 -19 5 -10 18 6 11 8
11 12 0 2 -7 1 -15 -2 -18z m3405 1 c24 -12 29 -19 23 -37 -9 -31 -8 -30 -46
-11 -43 22 -41 19 -28 43 13 25 13 25 51 5z"/>
<path d="M10894 8259 c-4 -7 -3 -9 4 -5 5 3 12 0 15 -6 2 -7 7 -10 11 -7 4 3
0 12 -8 18 -11 9 -16 9 -22 0z"/>
<path d="M8213 8213 c0 -9 4 -10 14 -2 7 6 13 12 13 14 0 1 -6 2 -13 2 -8 0
-14 -6 -14 -14z"/>
<path d="M10933 8217 c0 -8 6 -14 14 -14 9 0 10 4 2 14 -6 7 -12 13 -14 13 -1
0 -2 -6 -2 -13z"/>
<path d="M10980 8151 c0 -6 4 -13 10 -16 6 -3 7 1 4 9 -7 18 -14 21 -14 7z"/>
<path d="M8397 7499 c7 -7 15 -10 18 -7 3 3 -2 9 -12 12 -14 6 -15 5 -6 -5z"/>
<path d="M17290 4337 c0 -17 5 -27 15 -27 19 0 19 9 0 34 -14 19 -15 19 -15
-7z"/>
<path d="M17145 4228 c-39 -10 -55 -33 -55 -78 0 -86 59 -511 73 -524 8 -9 17
-47 21 -88 13 -132 17 -147 40 -151 11 -3 -1 -4 -29 -3 l-49 1 -36 180 -35
180 -45 -8 c-25 -4 -55 -9 -67 -10 -28 -2 -28 -2 2 -166 31 -166 31 -164 3
-156 -61 18 -58 19 -58 -29 0 -41 2 -45 33 -55 36 -11 79 -19 117 -20 16 -1
43 -17 69 -41 24 -23 45 -39 47 -37 2 2 -10 16 -26 32 -17 16 -30 31 -30 35 0
3 33 4 73 2 69 -4 74 -6 115 -45 48 -47 58 -40 12 8 l-31 32 193 6 c189 6 193
6 218 -16 22 -20 23 -20 7 -1 -24 29 -22 31 25 38 56 9 68 21 68 67 0 37 -1
38 -29 33 -25 -5 -29 -3 -25 12 14 63 94 517 91 520 -2 2 -24 7 -49 10 -55 8
-47 26 -87 -196 -17 -91 -39 -209 -49 -262 -17 -89 -17 -98 -3 -100 34 -3
-129 -16 -220 -17 l-96 -1 -16 113 c-20 129 -21 154 -7 159 6 2 -3 106 -24
270 -35 282 -40 301 -89 310 -12 2 -36 1 -52 -4z m97 -328 c50 -382 48 -345
18 -345 -24 0 -25 3 -27 65 -1 36 -15 175 -32 310 -36 288 -36 272 -14 268 15
-3 23 -46 55 -298z m481 -497 c-7 -2 -19 -2 -25 0 -7 3 -2 5 12 5 14 0 19 -2
13 -5z m-640 -10 c-7 -2 -21 -2 -30 0 -10 3 -4 5 12 5 17 0 24 -2 18 -5z"/>
<path d="M17812 4090 c-16 -26 -15 -30 3 -30 9 0 15 9 15 25 0 30 -2 31 -18 5z"/>
<path d="M16950 3905 c0 -20 5 -25 25 -25 25 0 25 1 9 25 -9 14 -20 25 -25 25
-5 0 -9 -11 -9 -25z"/>
<path d="M2410 3305 l0 -385 230 0 230 0 0 385 0 385 -230 0 -230 0 0 -385z"/>
<path d="M4090 3321 l0 -111 -38 0 c-108 0 -235 -64 -299 -150 -37 -51 -73
-153 -73 -210 0 -38 0 -38 -47 -44 -27 -4 -145 -11 -263 -16 -626 -29 -1389 8
-1562 75 -17 7 -18 -3 -18 -114 0 -107 2 -121 19 -130 53 -29 256 -55 548 -72
260 -14 1098 -7 1296 11 l137 13 45 -32 c56 -40 113 -61 194 -69 l64 -7 -1
-120 c-1 -66 2 -126 7 -134 24 -38 340 -67 641 -57 281 8 413 28 424 64 3 9 5
109 5 220 -1 231 8 213 -91 168 -56 -25 -58 -25 -58 -5 0 15 16 27 67 50 61
27 82 43 83 60 0 4 -34 21 -75 39 -55 24 -75 38 -75 51 0 24 -1 24 77 -11 36
-16 67 -30 68 -30 2 0 3 151 4 336 2 320 1 336 -16 329 -10 -5 -52 -15 -93
-23 -109 -23 -751 -23 -860 0 -41 8 -83 18 -92 23 -17 7 -18 -2 -18 -104z m0
-481 l0 -240 -39 0 c-41 0 -62 14 -36 24 12 4 15 28 15 127 0 111 -1 121 -17
114 -36 -13 -139 -35 -170 -35 -38 0 -39 6 -19 73 28 95 104 157 206 168 30 3
56 7 58 8 1 0 2 -107 2 -239z m890 18 c0 -7 -12 -82 -26 -165 -24 -132 -30
-153 -46 -153 -23 0 -23 -3 9 178 23 130 29 152 45 152 10 0 18 -6 18 -12z
m-130 -57 c0 -14 -22 -28 -85 -56 -47 -21 -85 -41 -85 -44 0 -3 37 -22 81 -40
77 -33 95 -48 87 -70 -4 -15 -232 93 -236 111 -2 10 32 30 110 66 62 28 116
51 121 51 4 1 7 -7 7 -18z"/>
<path d="M17020 3295 c0 -6 41 -50 91 -100 50 -49 86 -81 81 -70 -14 26 -172
183 -172 170z"/>
<path d="M17646 3240 c21 -22 42 -40 48 -40 5 0 -8 18 -29 40 -21 22 -43 40
-47 40 -5 0 8 -18 28 -40z"/>
<path d="M17220 3259 c0 -8 32 -46 70 -84 39 -38 70 -63 70 -54 0 8 -31 46
-70 84 -38 38 -70 63 -70 54z"/>
<path d="M17640 3165 c45 -46 57 -55 44 -32 -13 22 -69 77 -79 77 -5 0 11 -20
35 -45z"/>
<path d="M17120 3105 c89 -89 121 -117 89 -78 -27 32 -170 173 -177 173 -4 0
36 -43 88 -95z"/>
<path d="M17230 3170 c0 -19 137 -157 146 -147 4 4 -27 42 -69 84 -42 43 -77
71 -77 63z"/>
<path d="M17630 3095 c24 -25 46 -45 48 -45 7 0 -20 34 -51 63 -48 44 -45 31
3 -18z"/>
<path d="M17135 3010 c49 -49 92 -90 95 -90 2 0 -36 41 -85 90 -49 50 -92 90
-95 90 -2 0 36 -40 85 -90z"/>
<path d="M17240 3074 c0 -5 34 -43 75 -84 41 -41 75 -70 75 -64 0 5 -34 43
-75 84 -41 41 -75 70 -75 64z"/>
<path d="M17610 3034 c25 -27 47 -49 50 -47 2 2 -18 25 -45 51 l-49 47 44 -51z"/>
<path d="M17070 2994 c1 -5 42 -49 91 -99 50 -49 87 -81 81 -70 -12 24 -172
181 -172 169z"/>
<path d="M17600 2955 c24 -24 46 -42 49 -40 5 6 -74 85 -85 85 -5 0 12 -20 36
-45z"/>
<path d="M17250 2982 c0 -18 149 -170 150 -152 0 9 -34 49 -75 90 -41 41 -75
69 -75 62z"/>
<path d="M17590 2885 c43 -43 50 -49 50 -41 0 6 -82 86 -88 86 -4 0 14 -20 38
-45z"/>
<path d="M17174 2801 c50 -50 92 -88 95 -86 6 7 -138 153 -164 167 -11 5 20
-31 69 -81z"/>
<path d="M17270 2879 c0 -8 32 -46 70 -84 39 -38 70 -63 70 -54 0 8 -31 46
-70 84 -38 38 -70 63 -70 54z"/>
<path d="M17590 2805 c19 -19 36 -35 39 -35 3 0 -10 16 -29 35 -19 19 -36 35
-39 35 -3 0 10 -16 29 -35z"/>
<path d="M17135 2761 c37 -41 59 -64 116 -116 l43 -40 -39 45 c-22 25 -65 67
-95 95 -31 28 -42 35 -25 16z"/>
<path d="M17280 2784 c0 -5 32 -41 70 -79 39 -38 70 -65 70 -59 0 5 -31 41
-70 79 -38 38 -70 65 -70 59z"/>
<path d="M17570 2743 c0 -5 9 -18 20 -28 11 -10 20 -14 20 -8 0 5 -9 18 -20
28 -11 10 -20 14 -20 8z"/>
<path d="M17290 2691 c0 -13 133 -151 145 -151 13 0 -18 40 -79 100 -36 35
-66 58 -66 51z"/>
<path d="M17232 2572 c59 -59 111 -110 114 -114 4 -5 -7 -8 -24 -8 -26 0 -44
13 -101 73 -39 39 -71 68 -71 64 0 -5 28 -38 63 -74 l62 -65 -38 5 c-20 3 -45
11 -54 18 -12 10 -15 10 -9 2 5 -10 -5 -13 -41 -13 -50 0 -148 13 -195 25 -27
7 -28 6 -28 -38 0 -35 4 -47 18 -51 150 -44 700 -46 831 -3 34 11 36 15 39 60
3 44 1 47 -15 39 -27 -14 -77 -21 -208 -31 l-117 -9 -76 80 c-42 44 -78 74
-80 68 -3 -7 26 -43 64 -81 66 -67 68 -69 40 -69 -29 0 -88 50 -219 188 -22
23 -45 42 -51 42 -6 0 37 -48 96 -108z"/>
<path d="M8687 2629 c-54 -13 -88 -32 -130 -76 -51 -52 -70 -107 -65 -187 13
-213 280 -303 424 -144 47 53 64 95 64 163 0 50 -20 121 -38 135 -4 3 -12 14
-18 24 -6 11 -19 24 -30 30 -10 6 -21 14 -24 17 -25 31 -124 51 -183 38z"/>
<path d="M9558 2626 c-177 -47 -248 -260 -131 -395 18 -22 58 -52 88 -67 160
-78 348 44 348 226 0 61 -33 138 -75 176 -61 56 -153 80 -230 60z"/>
<path d="M10448 2629 c-106 -24 -198 -135 -198 -237 0 -85 46 -165 129 -222
25 -17 52 -24 107 -28 50 -3 74 -1 74 6 0 6 6 9 13 6 21 -8 106 55 134 98 13
22 29 63 35 91 35 165 -130 324 -294 286z"/>
<path d="M8195 1731 c-91 -42 -148 -130 -146 -228 1 -136 108 -242 244 -243
264 -1 343 356 103 469 -58 27 -145 28 -201 2z"/>
<path d="M9075 1731 c-50 -23 -109 -84 -130 -133 -21 -51 -19 -137 4 -190 84
-196 362 -197 452 -3 24 53 25 147 0 200 -23 51 -75 102 -126 125 -55 24 -150
24 -200 1z"/>
<path d="M9955 1730 c-84 -38 -145 -134 -145 -228 0 -93 78 -203 165 -232 57
-19 165 -8 206 20 84 59 123 126 122 215 0 98 -56 183 -148 226 -52 24 -146
24 -200 -1z"/>
<path d="M10835 1726 c-93 -43 -151 -139 -142 -237 8 -96 55 -162 150 -211 34
-17 54 -20 112 -16 60 4 79 10 118 36 105 73 141 191 93 307 -17 40 -84 107
-129 129 -52 24 -141 21 -202 -8z"/>
<path d="M3279 1668 c-1 -2 -20 -145 -44 -318 l-42 -315 33 -250 c18 -137 47
-356 64 -485 17 -129 33 -247 36 -263 l6 -27 252 0 253 0 -8 58 c-10 72 -173
1306 -205 1555 l-6 47 -169 0 c-93 0 -169 -1 -170 -2z"/>
<path d="M15640 1663 c0 -5 -7 -60 -16 -123 -8 -63 -32 -250 -54 -415 -78
-602 -141 -1071 -147 -1092 l-5 -23 255 0 256 0 5 33 c3 17 22 154 41 302 20
149 47 353 61 454 14 101 25 204 26 230 0 41 -65 563 -77 619 -5 22 -7 22
-175 22 -94 0 -170 -3 -170 -7z"/>
<path d="M8665 861 c-69 -22 -145 -95 -166 -158 -22 -68 6 -234 35 -205 4 4 7
3 6 -3 -5 -24 2 -35 43 -65 94 -69 219 -73 287 -10 17 16 34 28 38 28 4 -1 20
20 37 46 34 55 45 150 26 209 -18 52 -79 117 -136 143 -50 24 -125 30 -170 15z"/>
<path d="M9546 863 c-60 -16 -131 -84 -161 -156 -62 -149 64 -330 230 -331
161 -1 285 159 240 311 -9 29 -21 58 -29 65 -7 7 -18 23 -24 35 -6 11 -38 35
-71 52 -59 30 -125 39 -185 24z"/>
<path d="M10426 860 c-74 -23 -158 -114 -172 -187 -29 -153 92 -299 246 -296
72 1 125 25 177 79 76 80 90 181 39 282 -28 56 -45 72 -110 106 -51 27 -121
33 -180 16z"/>
</g>
</svg>
